<svg xmlns="http://www.w3.org/2000/svg" viewBox="0 0 2426.48 2054.43"><defs><style>.cls-1,.cls-2,.cls-3,.cls-4,.cls-5{fill-rule:evenodd;}.cls-2{fill:#b2a487;}.cls-3,.cls-7{fill:#cc2131;}.cls-11,.cls-12,.cls-4{fill:#fff;}.cls-5{fill:#e9cd3a;}.cls-6,.cls-8{fill:none;}.cls-6{stroke:#cc2131;stroke-linecap:round;stroke-linejoin:round;stroke-width:16.59px;}.cls-10,.cls-11,.cls-12,.cls-13,.cls-14,.cls-15,.cls-9{isolation:isolate;}.cls-11,.cls-14,.cls-15,.cls-9{font-size:350px;}.cls-10,.cls-11,.cls-12,.cls-9{font-family:BerlinSansFBDemi-Bold, Berlin Sans FB Demi;font-weight:700;}.cls-11,.cls-9{letter-spacing:0.02em;}.cls-10,.cls-12{font-size:300px;letter-spacing:0.02em;}.cls-14{font-family:PalaceScriptMT, Palace Script MT;}.cls-14,.cls-15{letter-spacing:0.07em;}.cls-15{font-family:EdwardianScriptITC, Edwardian Script ITC;}</style></defs><g id="Layer_2" data-name="Layer 2"><g id="my_logo" data-name="my logo"><path class="cls-1" d="M1524.52,312.59l3.5,2.9c48.9,38.6,66.9,70.8,55.3,96.5-8.2,17-29.7,26.3-65.2,28.1-37.3,1.8-83.2-5.8-138-23.4-80.9-25.7-134.5-59.1-160.7-99.5l-.6,8.8c6.4,14,22.7,28.7,47.7,45.1l4.7,2.9c2.3,29.3,12.8,54.4,30.9,76.7l-8.1-22.8,16.9,14.6-12.2-21.1,18.7,12.9-20.9-27.5c7.5,4.7,15.1,9.9,22.1,14.6l-22.3-26.9c7.5,3.5,15.1,6.4,23.3,9.4l-5.8-7a535.33,535.33,0,0,0,123.4,43.3l-55.3-1.8,36.1,13.5-41.3-1.8,31.4,14-40.2-2.9,30.9,13.4-37.8-1.8,24.4,12.3-33.8-4.1,10.5,8.2c-15.1-7.3-30.1-14.9-44.8-22.8,2.3,6.4,7.6,11.7,14,15.8,32,17.6,65.2,22.2,100.2,13.4l-7,15.2c-4.7,8.2-11.1,12.9-19.8,14.6a200,200,0,0,1-73.9-12.3q-48.9-19.35-59.4-66.7l1.2,21.1-4.1,7c-8.2,18.7-5.2,35.1,8.7,49.7L1269,499l11.1,13.5-4.7-21.6,19.2,19.9h1.8a43.22,43.22,0,0,1-12.2-18.7l-2.3-7c17.5,20.5,39.6,33.9,66.4,41l-24.4-4.1c7.5,4.1,14,8.2,21.5,12.3-4.1,4.1-10.5,5.3-19.2,2.3l-9.9-2.3,17.5,13.4c-3.5,2.9-7.5,4.1-12.2,2.3l-19.2-6.4c8.7,9.9,21,15.2,35.5,15.8a39.26,39.26,0,0,0,22.1-2.9l9.3-4.7,4.7.6c-5.2,24-20.4,36.3-45.4,36.9-30.3-2.9-54.2-18.1-71.6-45.1-11.1-17.5-13.4-36.3-8.1-55.6l-8.2,14.6-1.2,7.6-.6,5.3c-.6,22.2,16.9,44.5,50.7,66.1l4.1,2.3c4.6,2.3,2.9,2.3-5.2-.6a145.06,145.06,0,0,1-23.3-11.7l8.2,8.2c6.4,7,9.3,11.1,8.2,12.3-1.2.6-5.2,0-12.8-2.9a80.24,80.24,0,0,1-16.3-9.4c7,9.9,12.8,16.4,18,19.3-7,4.1-17.5,0-30.9-12.9,4.7,10.5,9.9,17,15.7,20.5-4.7,4.7-14.6-.6-29.7-16.4l6.4,9.9c4.7,8.2,7,12.9,6.4,15.2-1.8,2.9-10.5-2.9-26.8-17,5.8,12.3,9.9,19.3,12.8,20.5-5.8,5.8-14.6,0-26.2-17,3.5,12.9,7,20.5,9.3,23.4-4.1,0-9.3-2.3-13.4-7.6l-14.6-12.9c6.4,11.7,9.9,19.9,8.7,23.4-.6,3.5-8.1-3.5-22.1-21.1-.6,7.6,1.8,15.2,7.6,23.4-8.1,0-15.7-8.2-23.3-24-4.1,0-2.9,6.4,2.9,19.3.6,1.8.6,2.9,0,2.9h-3.5c-4.6-3.5-9.3-10.5-14-22.2-1.2-2.3-1.7-2.3-2.9,0l1.2,15.8-2.9,2.3-15.1-27.5.6,25.2a47.76,47.76,0,0,1-16.3-29.8l-1.8,23.4-12.8-30.4-2.9,19.3c-1.8,0-4.7-4.7-7.6-14.6L1073,582l-5.2,19.3-7.6-26.3-6.4,15.2c-3.5-1.8-5.8-4.1-6.4-8.8a64.4,64.4,0,0,1,0-15.2l-7.6,17.6-4.1-27.5-9.3,13.5.6-20.5-8.7,7-4.7.6c-2.9,3.5-3.5,8.2-3.5,13.4l.6,13.5c-19.8-9.4-25-24-15.1-44.5a94.54,94.54,0,0,1,21-27.5c-14,5.3-24.4,15.2-30.3,31.6a97.46,97.46,0,0,1-26.2-34.5l-11.1-4.1c-4.1-3.5-6.4-8.2-7.6-13.4V482L917,400.69l-4.1-1.8L931,475a48.39,48.39,0,0,0,5.2,21.6q18.6,31.65,38.4,62.6c8.1,21.1,23.3,36.9,44.3,46.8a74.86,74.86,0,0,1,21,14,308.56,308.56,0,0,1-97.8-19.3c-11.6-4.7-22.1-2.3-30.3,6.4l43.1,4.1-9.3,7.6,14.6-2.9,9.9,4.7c-2.3,4.7-7,7-12.8,6.4l-21.5.6,36.7,7.6,5.8-4.7h-3.5c13.4-12.9,32.6-14.6,58.2-4.7l-3.5,1.8,10.5.6,7-2.3,8.7,5.8c-15.1,11.7-34.4,17.6-57.6,17a352,352,0,0,1-134.5-15.2,276.78,276.78,0,0,0,86.2,22.2c41.3,4.1,79.2-2.3,113-19.3,73.4,39.8,149.6,38,230-5.3l6.9,4.1c84.4,45.1,184,35.7,298.1-29.2,26.2,35.7,60,46.2,101.9,31a75.18,75.18,0,0,0,29.7-18.1h277.1l11.6,21.6c4.7,11.7,11.6,33.3,19.2,63.2,8.7,33.3,17.5,62,26.2,85.4,32,83.7,92.6,180.2,181.1,288.4,3.5,4.1,4.1,7.6,2.3,11.1-2.3,2.9-5.2,1.8-9.3-2.3-5.8-6.4-20.4-14-44.3-22.8-26.2-10.5-47.2-14.6-62.3-12.9,5.8,12.9,7.6,29.3,5.2,49.1-4.1,31.6-1.8,53.2,7,64.4-30.3,6.4-43.6,31.6-38.4,76,60-19.3,110.6-5.3,151.9,43.3,29.7,34.5,46,74.9,49.5,119.9,3.5,46.2-7.6,92.4-32,139.2,1.2-12.9,1.8-23.4,1.2-31.6-3.5-26.3-4.7-49.7-3.5-70.8,1.8-31,8.2-52.1,19.8-64.9-19.8-32.2-47.7-33.9-83.2-5.8-31.4-33.9-68.1-45.7-111.2-34.5,12.8,11.1,18.6,24.6,18,40.4-1.8,24,.6,43.9,6.4,60.2-25,7-40.2,24.6-45.4,53.2-19.2-6.4-37.8-5.8-56.5,2.4-16.9,7.6-29.1,18.7-36.7,34.5-9.9,19.9-10.5,44.5-2.9,74.3H451.52c12.8-92.5-22.1-130.5-103.6-115.3-4.1-28.1-18.1-45.1-41.3-50.9,5.2-25.1,7.6-45.6,8.1-61.4-.6-15.2,4.7-28.7,15.7-40.4-42.5-11.1-79.8,0-112.4,34.5-36.7-28.1-64.6-26.9-86.2,4.1,12.8,15.2,19.8,37.4,21.5,66.1.6,15.8-.6,36.9-4.1,62.6-1.2,10,0,23.4,4.1,41.5-26.8-52.1-39-99.5-36.1-142.8,2.3-43.9,20.4-85.4,54.1-123.4,39-45.1,89.1-57.9,149-38.6,5.2-45.1-8.2-69.6-38.4-75.5,8.2-21,11.1-42.7,7.6-63.8-3.5-21.7-2.9-38.6,2.3-49.8-18.1-2.3-39,1.2-63.5,10.5-22.1,8.2-35.5,15.2-41.3,21.7-4.1,5.3-7.6,5.8-11.6,2.9-2.9-4.1-2.3-8.2,2.3-12.3,86.7-101.8,146.7-196.6,180.5-282.6,8.1-22.2,17.5-51.5,27.4-87.2,8.7-29.8,15.7-50.9,22.1-63.2L417,619v-.6h283.5l-20.2-15.7H427.62l8.1-14.6c8.1-12.3,16.9-22.2,28.5-31l195.6-7c7,0,13.4-2.3,19.8-7H478.32c-8.7-6.4-17.5-11.7-26.2-15.2-29.7-14-58.8-12.9-88.5,4.1-3.5-24-15.7-43.9-35.5-59.1a111.82,111.82,0,0,0-34.3-18.1c-49.5-14.6-90.8-2.3-124.6,36.9-21.5,24.6-29.7,52.6-23.9,84.2a104.72,104.72,0,0,0,16.9,43.3c22.1,34.5,54.1,44.5,95.5,29.8,7-2.3,13.4-5.3,18-8.8l18.6-12.9a205.37,205.37,0,0,1-6.4,40.9c-4.7,18.1-12.2,35.7-21,52.7a44.64,44.64,0,0,0-9.3-13.5c-16.9-17-36.7-25.1-60-25.7a412.16,412.16,0,0,1,12.8,59.1c5.8,53.2-4.7,101.8-32.6,145.7a101.19,101.19,0,0,0-30.3-28.7c-22.7-13.4-43.1-12.3-62.9,2.3,4.1,8.2,6.4,17.6,7.6,26.9.6,17.7.6,35.5,0,53.3-2.9,43.9-14,85.4-32.6,125.2-47.7,98.9-67,203-57.1,313,7,83.7,34.9,158,83.8,223.5,44.3,59.7,103,96,175.8,107.7,53,9.9,98.4-1.8,136.8-32.8h1624.4c48.9,31.6,102.5,41,160.7,28.7,75.7-17.6,134.5-59.7,175.3-126.4,56.5-90.7,76.9-189.6,62.9-297.2a628.42,628.42,0,0,0-43.7-162.7,828,828,0,0,1-44.3-142.2c-8.7-39.8-8.7-78.4-.6-115.3a20.22,20.22,0,0,0-11.6-4.1c-32.6-3.5-58.2,8.2-78.6,33.4-39.6-63.8-46-131.6-18.7-202.4-12.8.6-25.6,2.9-36.7,8.2-14.5,6.4-26.2,16.4-34.3,31a217.12,217.12,0,0,1-17.5-41,170.19,170.19,0,0,1-8.7-54.4c18.6,17.5,40.8,25.7,66.4,25.7,22.7,1.8,42.5-5.8,58.8-23.4a83.69,83.69,0,0,0,22.1-43.9c7-39.8-3.5-73.7-32-102.4-26.8-26.3-58.8-36.3-96.1-28.7-48.3,7-77.4,33.9-88.5,79.6-37.8-23.4-73.9-22.2-108.9,3.5h-224.7c6.4,4.7,11.1,10.5,12.8,18.7a29.34,29.34,0,0,1,0,17.6,54.35,54.35,0,0,1-19.2,33.3c-15.7,13.5-32,20.5-50.1,19.9-9.3.6-18.6-1.8-27.4-5.9a87.05,87.05,0,0,1-29.7-19.3l-22.1-22.8,2.3,9.4-9.9,7-1.8.6-1.2,1.2-1.8.6-2.9,1.8-2.9,1.8c-44.3,25.7-89.7,39.8-138,43.3l-61.7-2.3-36.1-8.2a150.46,150.46,0,0,1-20.4-6.4,104.07,104.07,0,0,1-16.3-6.4l16.9-9.9c77.4.6,143.8-26.9,200.3-82.5l.6,9.4-12.2,12.9c9.3-2.3,15.1-8.8,17.5-18.7,2.3-14,9.9-24.6,22.1-31,1.8,15.8-3.5,28.7-15.7,38.6l12.8-8.8,7-7.6,1.2-2.9,2.3-6.4c2.3-5.9,2.3-12.9.6-20.5l-1.2-3.5-.6-.6c29.7-45.6,69.9-76.6,119.9-94.2l-8.1,2.3c-22.7,7.6-43.7,18.1-62.3,32.8l-18.6,15.8q-46.2,41-90.3,84.3c-47.2,47.4-103,72-168.3,73.7l15.7-11.7,21-7c16.3-7.6,26.2-20.5,29.1-38.6,2.3-10.5,9.3-17.6,20.4-21.1,23.9-6.4,36.7-22.2,37.8-47.4l43.1-34.5a234.41,234.41,0,0,0,63.5-7c16.9-4.7,28.5-11.7,34.3-21.6,9.9-22.2,7-42.7-8.7-62a223.43,223.43,0,0,0-53.8-46.5Zm-106,176.1-17.5,2.9c13.4-22.8,32.6-39.2,57.6-48l10.5,1.2Q1439.57,464.14,1418.52,488.69Zm-34.3,44.4-11.6,12.9c-7,7.6-14,9.9-20.9,8.8l14.6-18.7C1372,530.19,1378.42,529,1384.22,533.09Zm-72.8,59.1,11.1,2.9c-46.6,42.1-101.9,60.8-164.8,55.6-54.7-2.9-100.7-24.6-137.4-64.4l-2.3-7.6q79.5,72.9,185.2,61.4c40.7-5.8,76.8-22.1,108.2-47.9Zm428.5,9.4,4.7-11.1c1.8-8.2,2.3-17,.6-24.6l-2.3-9.4h223c7,8.2,16.3,22.8,27.9,45.1Zm352.9-88.4c21.5-28.7,50.1-40.4,85-36.9,32,4.7,54.7,21.6,68.7,50.9,18.6,38.6,11.1,72-22.7,101.2-13.4,11.7-29.7,15.2-47.7,11.1-29.7-6.4-44.8-25.1-44.8-55-.6-16.4,5.8-28.7,18-36.9,16.9-10.5,30.9-7.6,40.8,7.6,8.7,14,8.7,27.5-.6,41.5l3.5,5.8,7.6,1.2c17.5-19.3,19.8-39.2,8.2-60.3-8.7-15.8-21.6-24-39-24a45.29,45.29,0,0,0-26.8,12.3c-26.8,22.8-37.8,52.1-32.6,88.3,2.9,21.1,6.4,41.5,10.5,61.4l26.8,114.7h12.8a186.22,186.22,0,0,1,16.3-62c5.2-10.5,13.4-17,25-19.3-16.9,72-5.2,139.2,34.9,200.7a105,105,0,0,0,9.9,51.5l9.3,1.2,3.5-2.4,1.8-3.5c-8.2-23.4-7-45.1,4.1-65.5a40.72,40.72,0,0,1,21-17c9.9-3.5,19.8-5.3,29.1-4.1q-13.05,110.55,32.6,212.4c37.3,83.7,57,171.4,58.8,262.1,2.3,107.1-33.8,198.3-106.5,273.2-35.5,36.3-77.4,59.1-126.3,69-50.1,8.8-94.9,0-134.5-28.1a125.72,125.72,0,0,1-33.2-38.6c-19.2-36.9-16.3-71.4,9.3-103.6,5.8-7.6,12.8-12.9,22.1-14.6,23.3-7.6,42.5-2.3,58.8,15.8,19.8,22.2,23.3,47.4,9.9,75.5-15.1-2.3-25.6-11.1-31.5-25.7l-14.5-36.9-9.9,1.8q-5.25,47.4,36.7,72c20.4,11.7,42.5,13.5,66.4,4.7,16.9-7.6,27.9-20.5,31.4-38.6,5.2-24-1.2-44.5-19.2-60.8a56.9,56.9,0,0,0-20.4-12.3,121,121,0,0,0-46-4.1c-.6-27.5,12.8-42.7,40.2-46.2,9.3,11.1,20.4,17,32.6,17a15.46,15.46,0,0,0,8.7-7.6c-8.1-12.3-17.5-24-28.5-33.4-4.7-4.1-8.1-9.4-11.1-15.2-9.3-18.7-13.4-39.8-13.4-62,27.9,1.2,50.1,11.1,66.4,31,12.2,14.6,18.1,32.2,17.5,51.5l4.7,5.3h8.1c8.7-18.1,7.6-36.3-3.5-54.4,11.6-11.1,25.6-14.6,40.2-10l8.7,2.4c-13.4,34.5-16.9,70.2-12.2,105.9,8.7,58.5-9.9,105.9-54.1,143.9,33.2-12.3,59.4-33.9,78.6-64.4q68.1-105.3,22.7-221.1c-22.7-60.3-65.2-98.9-126.3-115.8a149.16,149.16,0,0,0-55.9-7c2.3-26.9,18.7-38.6,48.3-34.5l35.5,8.2,5.8-11.1c-19.8-5.8-36.7-16.4-51.2-31a16.71,16.71,0,0,1-3.5-8.2c-2.3-22.8-5.2-46.2-7-69,38.4-1.8,68.7,13.4,89.1,46.2a107.14,107.14,0,0,1,16.3,38.6l2.9,2.3,9.3-3.5-11.6-52.1c15.1-17,32.6-20.5,53-10l5.2,4.1c-21,36.3-26.8,74.3-16.3,115.8q9.6,35.1,41.9,56.2a369.32,369.32,0,0,0-20.4-105.3,77,77,0,0,1-2.9-25.7c1.2-14.6,7-28.7,17.5-41-15.7-30.4-40.2-39.2-72.8-26.9a1341.85,1341.85,0,0,1-175.2-276.7,504.86,504.86,0,0,1-37.8-112.9,254.16,254.16,0,0,0-12.2-41c-14.6-34.5-34.4-64.9-60-91.3,27.4-12.9,53-10.5,76.9,7.6-1.2,28.1,7.6,53.8,25.6,77.8l8.2-3.5a222.7,222.7,0,0,1-9.9-76.1,66.76,66.76,0,0,1,15.3-42.6Zm30.8,1090c8.2-11.7,11.1-26.3,9.9-43.9-1.8-17.6-7-31.6-15.7-42.7,32-5.8,48.9,7,50.1,39.8C2168.52,1586.19,2153.92,1601.49,2123.62,1603.19Zm-142.6,15.2a123,123,0,0,0,24.4,41.6H421.22a158,158,0,0,0,26.2-41.6ZM271,467.59c20.4,2.9,36.7,11.7,49.5,26.9,34.3,38.6,38.4,80.2,11.6,126.4l8.1,7,7.6-1.8,4.7-7c12.2-19.3,17.5-39.8,15.7-62.6l7.6-6.4c23.3-15.8,47.2-18.1,72.2-5.9-31.4,29.8-52.4,64.9-63.5,105.9q-14.55,54.3-33.8,107.1a883.66,883.66,0,0,1-191.6,308.9l-21.5-2.9c-24.4-4.1-41.3,6.4-51.2,31.6a75.76,75.76,0,0,1,18.1,43.9c1.2,5.8,0,11.7-1.2,17.6a348.16,348.16,0,0,0-18.1,111.8,92.62,92.62,0,0,0,29.7-35.7c23.3-47.4,21-93.6-6.4-139.2,11.1-11.1,25-14,40.8-8.8,7.6,1.8,12.8,5.9,16.9,12.3a8.47,8.47,0,0,1,0,7.6c-10.5,16.4-12.8,34.5-6.4,53.8l11.1-3.5a75.53,75.53,0,0,1,11.6-36.3q29.7-47.4,89.1-50.9l1.2,59.1c.6,9.4-2.9,16.4-9.9,22.2a192.24,192.24,0,0,1-47.7,27.5l1.2,11.1,50.1-10c22.7,1.8,34.9,14,36.7,38.6-37.3-2.9-72.2,4.1-105.4,22.2-18.1,10.5-33.2,22.8-45.4,38.6-43.7,56.2-59.4,119.9-44.8,191.9,14,70.8,51.8,122.9,114.7,155.6-19.8-17-33.8-36.9-43.7-61.4-8.7-24-11.6-49.1-7-75.5,7-41,2.3-80.2-14.6-116.4l15.1-2.9a53.09,53.09,0,0,1,32.6,8.8l-1.2,9.4a114.32,114.32,0,0,0-1.7,50.9l9.9-1.2a370.4,370.4,0,0,1,24.4-50.3c13.4-23.4,33.8-36.3,61.7-38l-3.5,36.3a118.62,118.62,0,0,1-12.8,41.5,21.46,21.46,0,0,1-11.1,10.5c-8.7,5.3-16.9,10.5-23.3,17.6l4.1,12.3c4.1.6,8.1,0,12.8-2.9,11.1-4.7,21.5-9.4,32-12.9,22.1,5.8,34.4,20.5,36.7,44.5-24.5-5.8-46.6-1.2-65.2,14-25,21.1-32,46.8-19.8,77.2,6.4,15.8,17.5,25.7,33.8,31.6,23.9,6.4,44.8,3.5,65.2-9.4,25-17,34.9-39.8,30.3-69.6l-13.4,1.2-2.3,12.3c-4.7,25.1-17.5,40.3-39,45.6-10.5-18.1-12.2-36.3-4.1-55.6,11.6-28.1,31.4-41.5,60.5-40.4,30.3,4.1,47.7,21.7,53,52.1,8.1,42.1-4.1,77.8-37.3,107.1-9.9,8.2-21.5,14.6-33.8,19.9-66.4,23.4-128.7,16.4-188.6-22.2-26.2-17-48.3-36.9-66.4-60.8a421.88,421.88,0,0,1-77.4-163.2c-18.1-80.2-16.3-159.1,7-237.5,7.6-28.1,18.6-55,31.4-81.3,39-78.4,51.8-159.7,39.6-244.6l23.3-.6c26.8,5.3,39,21.1,36.7,48l-2.9,42.7,11.1,1.8c5.2-8.8,8.2-18.7,9.9-29.3a96.38,96.38,0,0,1,10.5-31c34.3-60.8,42.5-126.4,24.5-195.4,36.7,15.2,50.6,42.7,41.3,82.5l8.7,3.5,5.8-7.6a36.7,36.7,0,0,0,2.3-12.9,82.41,82.41,0,0,1,8.7-43.9c14-29.8,22.7-60.3,25-93a282.83,282.83,0,0,0-2.3-70.2c-3.5-24-15.7-40.4-35.5-48-19.8-8.2-37.3-4.7-53,11.1-24.4,24.6-24.4,47.4,0,69l9.3-5.3-4.7-25.1c-2.3-21.6,5.8-33.9,25.6-36.9,11.6-.6,21,3.5,27.4,13.5,16.3,23.4,15.7,46.8-1.2,69-14.6,18.1-33.8,25.1-57.1,21.1-26.8-5.8-44.3-21.6-51.8-46.8-11.1-37.4-2.9-69.6,25-96,22.3-20.6,48.5-28.2,78.2-23.5Zm22.1,1088.2c-2.3,17.6,1.2,32.8,10.5,45.1-31.4,0-47.2-14.1-46-43.9,1.2-34.5,18-49.1,51.8-43.9-9.9,12.3-15.1,26.3-16.3,42.7Z"/><path class="cls-2" d="M1401.12,491.59l17.5-2.9q21-24.6,50.7-43.9l-10.5-1.2C1433.72,452.39,1414.52,468.79,1401.12,491.59Zm-28.6,54.4,11.6-12.9c-5.8-4.1-12.2-2.9-18,2.9l-14.6,18.7C1358.62,556,1365.62,553.59,1372.52,546Zm-50,49.1-11.1-2.9c-31.4,25.7-67.5,42.1-108.3,48q-105.75,11.4-185.2-61.4l2.3,7.6c36.7,39.8,82.7,61.4,137.4,64.4,63,5.2,118.3-13.5,164.9-55.7Zm422.1-4.6-4.7,11.1h253.8c-11.6-22.2-20.9-36.9-27.9-45.1h-223l2.3,9.4C1746.92,573.49,1746.32,582.29,1744.62,590.49Z"/><path class="cls-2" d="M2177.82,476.39c-35-3.5-63.5,8.2-85,36.9-9.9,12.3-15.1,26.3-15.7,42.7a221.11,221.11,0,0,0,9.9,76.1l-8.2,3.5c-18-24-26.8-49.7-25.6-77.8-23.9-18.1-49.5-20.5-76.9-7.6,25.6,26.3,45.4,56.7,60,91.3a257.2,257.2,0,0,1,12.2,41,504.86,504.86,0,0,0,37.8,112.9,1343.4,1343.4,0,0,0,175.2,276.7c32.6-12.3,57.1-3.5,72.8,26.9-10.5,12.3-16.3,26.3-17.5,41a76.74,76.74,0,0,0,2.9,25.7,369.32,369.32,0,0,1,20.4,105.3q-32.25-21-41.9-56.2c-10.5-41.5-4.7-79.6,16.3-115.8l-5.2-4.1c-20.4-10.5-37.8-7-53,10l11.6,52.1-9.3,3.5-2.9-2.3a106.41,106.41,0,0,0-16.3-38.6c-20.4-32.7-50.7-48-89.1-46.2,1.8,22.8,4.7,46.2,7,69a18.58,18.58,0,0,0,3.5,8.2c14.6,14.6,31.4,25.2,51.2,31l-5.8,11.1-35.5-8.2c-29.7-4.1-46,7.6-48.3,34.5a150.7,150.7,0,0,1,55.9,7c61.1,17,103.6,55.6,126.3,115.8q45.45,115.8-22.7,221.1c-19.2,30.4-45.4,52.1-78.6,64.4,44.3-38,62.9-85.4,54.1-143.9-4.7-35.7-1.2-71.4,12.2-105.9l-8.7-2.4c-14.5-4.7-28.5-1.2-40.2,10,11.1,18.1,12.2,36.3,3.5,54.4h-8.1l-4.7-5.3c.6-19.3-5.2-36.9-17.5-51.5-16.3-19.9-38.4-29.8-66.4-31,0,22.2,4.1,43.3,13.4,62,2.9,5.8,6.4,11.1,11.1,15.2,11.1,9.4,20.4,21.1,28.5,33.4a15.46,15.46,0,0,1-8.7,7.6c-12.2,0-23.3-5.8-32.6-17-27.4,3.5-40.8,18.7-40.2,46.2a121.18,121.18,0,0,1,46,4.1,56.29,56.29,0,0,1,20.4,12.3c18,16.4,24.4,36.9,19.2,60.8-3.5,18.1-14.5,31-31.4,38.6-23.9,8.8-46,7-66.4-4.7-27.9-16.4-40.2-40.3-36.7-72l9.9-1.8,14.5,36.9c5.8,14.6,16.3,23.4,31.5,25.7,13.4-28.1,9.9-53.2-9.9-75.5-16.3-18.1-35.5-23.4-58.8-15.8-9.3,1.8-16.3,7-22.1,14.6-25.6,32.2-28.5,66.7-9.3,103.6a124.39,124.39,0,0,0,33.2,38.6c39.6,28.1,84.4,36.9,134.5,28.1,48.9-10,90.8-32.7,126.3-69,72.8-74.9,108.9-166.2,106.5-273.2-1.8-90.7-21.5-178.4-58.8-262.1q-45.45-101.85-32.6-212.4c-9.3-1.2-19.2.6-29.1,4.1a41.13,41.13,0,0,0-21,17c-11.1,20.5-12.2,42.1-4.1,65.5L2259,966l-3.5,2.4-9.3-1.2a105,105,0,0,1-9.9-51.5c-40.2-61.4-51.8-128.7-34.9-200.7-11.6,2.3-19.8,8.8-25,19.3-8.7,19.3-14.6,39.8-16.3,62h-12.8l-26.8-114.7q-6.3-30.6-10.5-61.4c-5.2-36.3,5.8-65.5,32.6-88.4a45.89,45.89,0,0,1,26.8-12.3c17.5,0,30.3,8.2,39,24,11.6,21.1,9.3,41-8.2,60.3l-7.6-1.2-3.5-5.8c9.3-14,9.3-27.5.6-41.5-9.9-15.2-23.9-18.1-40.8-7.6-12.2,8.2-18.6,20.5-18,36.9,0,29.8,15.1,48.6,44.8,55,18,4.1,34.3.6,47.7-11.1,33.8-29.2,41.3-62.6,22.7-101.2-13.6-29.3-36.3-46.2-68.3-50.9Zm-54.2,43.3,10.5-4.1c-25.1,17.5-35.5,40.4-32.6,69-12.2-28.1-5.2-49.7,22.1-64.9Zm104.8,12.3a59.41,59.41,0,0,1,11.1,24.6c3.5,22.8-8.2,42.7-34.3,60.9,16.9-16.4,26.2-32.8,28.5-49.2,1.2-14.6-5.2-31-19.2-49.7a41.54,41.54,0,0,1,13.9,13.4Zm-128.6,227a402,402,0,0,0,28.5,56.8q71.4,115.8,150.8,226.4c-46.6-51.5-89.7-105.9-128.1-163.2C2126.52,842.59,2109.12,802.89,2099.82,759Zm82.6,25.1,5.2,35.1c-11.1-24-11.6-48.6-3.5-73.1Zm159.6,594.5-1.2-5.8c-12.2-69.6-46.6-124.6-102.5-165l23.3,16.4c51.8,39.7,78,91.2,80.4,154.4Zm-49-477.5-.6,30.4c-1.2,10.5-.6,25.1,2.9,43.9-9.2-23.3-9.8-47.9-2.3-74.3Zm-139.1,515.5,14,19.9c-18.7-7.6-27.9-24.6-26.2-50.3A83.36,83.36,0,0,0,2153.92,1416.59Zm54.7,164.4c-12.8,39.8-35.5,66.7-67.5,81.3,108.3-15.8,178.7-77.8,211.9-185.5q-53.25,194.85-229.4,191.3c41.3-21.7,68.1-50.9,80.3-89.5,11.1-33.9,8.7-69-5.8-105.3C2219.12,1500.29,2222.62,1535.89,2208.62,1581Z"/><path class="cls-1" d="M2134.12,515.59l-10.5,4.1c-27.4,15.2-34.3,36.8-22.1,64.9C2098.62,556,2109.12,533.09,2134.12,515.59Zm105.4,40.9a57.87,57.87,0,0,0-11.1-24.6,44.32,44.32,0,0,0-14-13.5c14,18.7,20.4,35.1,19.2,49.7-2.3,16.4-11.6,32.8-28.5,49.2,26.2-18.1,37.9-37.9,34.4-60.8Zm-111.2,259.2a386.56,386.56,0,0,1-28.5-56.8,338.2,338.2,0,0,0,51.2,119.9c38.4,57.3,81.5,111.7,128.1,163.2Q2199.77,931.59,2128.32,815.69Zm59.4,3.5-5.2-35.1,1.8-38c-8.3,24.6-7.7,49.1,3.4,73.1Zm153.1,553.5,1.2,5.8c-2.3-63.2-28.5-114.7-80.3-154.5l-23.3-16.4c55.8,40.5,90.2,95.5,102.4,165.1Zm-48.3-441.1.6-30.4c-7.5,26.3-7,50.9,2.3,74.3-3.5-18.8-4.1-33.4-2.9-43.9Zm-124.6,504.9-14-19.9a83.36,83.36,0,0,1-12.2-30.4C2139.92,1411.89,2149.22,1428.89,2167.92,1436.49Zm-26.8,225.8c32-14.6,54.7-41.5,67.5-81.3,14-45,10.5-80.7-10.5-107.6,14.6,36.3,16.9,71.4,5.8,105.3-12.2,38.6-39,67.9-80.3,89.5q176.4,3.45,229.4-191.3C2319.82,1584.49,2249.42,1646.49,2141.12,1662.29Z"/><path class="cls-3" d="M2133.52,1559.29c1.2,17.6-1.8,32.2-9.9,43.9,30.3-1.8,44.8-17,44.3-46.8-1.2-32.7-18.1-45.6-50.1-39.8,8.7,11.1,14,25.2,15.7,42.7Z"/><path class="cls-2" d="M2005.42,1660a122.08,122.08,0,0,1-24.4-41.6H447.42a159.63,159.63,0,0,1-26.2,41.6ZM320.52,494.49c-12.8-15.2-29.1-24-49.5-26.9-29.7-4.7-55.9,2.9-78,23.4-27.9,26.3-36.1,58.5-25,96,7.6,25.2,25,41,51.8,46.8,23.3,4.1,42.5-2.9,57.1-21.1,16.9-22.2,17.5-45.6,1.2-69-6.4-9.9-15.7-14-27.4-13.5-19.8,2.9-27.9,15.2-25.6,36.9l4.7,25.1-9.5,5.3c-24.4-21.6-24.4-44.5,0-69,15.7-15.8,33.2-19.3,53-11.1,19.8,7.6,32,24,35.5,48a278.1,278.1,0,0,1,2.3,70.2c-2.3,32.8-11.1,63.2-25,93a82.22,82.22,0,0,0-8.7,43.9,36.7,36.7,0,0,1-2.3,12.9l-5.8,7.6-8.7-3.5c9.3-39.8-4.7-67.3-41.3-82.5,18.1,69,9.9,134.6-24.5,195.4a98,98,0,0,0-10.5,31c-1.7,10.5-4.7,20.5-9.9,29.3l-11.1-1.8,2.9-42.7c2.3-26.9-9.9-42.7-36.7-48l-23.3.6c12.2,84.8-.6,166.2-39.6,244.6-12.8,26.3-23.9,53.2-31.4,81.3-23.3,78.4-25,157.4-7,237.5a420.53,420.53,0,0,0,77.4,163.2c18.1,24,40.2,43.9,66.4,60.8,60,38.6,122.3,45.7,188.6,22.2,12.2-5.3,23.9-11.7,33.8-19.9,33.2-29.2,45.4-64.9,37.3-107.1-5.2-30.4-22.7-48-53-52.1-29.1-1.2-48.9,12.3-60.5,40.4-8.1,19.3-6.4,37.4,4.1,55.6,21.5-5.3,34.4-20.5,39-45.6l2.3-12.3,13.4-1.2c4.7,29.8-5.2,52.7-30.3,69.6-20.4,12.9-41.3,15.8-65.2,9.4-16.3-5.9-27.4-15.8-33.8-31.6-12.2-30.4-5.2-56.2,19.8-77.2,18.6-15.2,40.8-19.9,65.2-14-2.3-24-14.6-38.6-36.7-44.5-10.5,3.5-21,8.2-32,12.9-4.7,2.9-8.7,3.5-12.8,2.9l-4.1-12.3c6.4-7,14.6-12.3,23.3-17.6a21.9,21.9,0,0,0,11.1-10.5,118.62,118.62,0,0,0,12.8-41.5l3.5-36.3c-27.9,1.8-48.3,14.6-61.7,38a359,359,0,0,0-24.4,50.3l-9.9,1.2a117.26,117.26,0,0,1,1.7-50.9l1.2-9.4a53.09,53.09,0,0,0-32.6-8.8l-15.1,2.9c16.9,36.3,21.5,75.5,14.6,116.4-4.7,26.3-1.8,51.5,7,75.5,9.9,24.6,23.9,44.5,43.7,61.4-62.9-32.7-100.7-84.8-114.7-155.6-14.6-72,1.2-135.8,44.8-191.9,12.2-15.8,27.4-28.1,45.4-38.6,33.2-18.1,68.1-25.1,105.4-22.2-1.7-24.6-14-36.9-36.7-38.6l-50.1,10-1.2-11.1a192.24,192.24,0,0,0,47.7-27.5c7-5.8,10.5-12.9,9.9-22.2l-1.2-59.1q-59.4,3.45-89.1,50.9a73.45,73.45,0,0,0-11.6,36.3l-11.1,3.5c-6.4-19.3-4.1-37.5,6.4-53.8a8.47,8.47,0,0,0,0-7.6c-4.1-6.4-9.3-10.5-16.9-12.3-15.7-5.2-29.7-2.3-40.8,8.8,27.4,45.6,29.7,91.9,6.4,139.2a92.62,92.62,0,0,1-29.7,35.7,346.32,346.32,0,0,1,18.1-111.8c1.2-5.8,2.3-11.7,1.2-17.6a74.48,74.48,0,0,0-18.1-43.9c9.9-25.1,26.8-35.7,51.2-31.6l21.5,2.9a886.58,886.58,0,0,0,191.6-308.9q19.2-52.8,33.8-107.1c11.1-41,32-76.1,63.5-105.9-25-12.3-48.9-9.9-72.2,5.9l-7.5,6.5c1.7,22.8-3.5,43.3-15.7,62.6l-4.7,7-7.6,1.8-8.1-7c26.7-46.2,22.6-87.8-11.7-126.4Zm2.3,38.6c7.6,15.8,6.4,29.8-2.9,42.7,4.7-7,3.5-19.3-4.7-36.3-7.6-17.6-16.9-28.1-26.8-32.8C304.22,508.59,315.82,517.29,322.82,533.09Zm-110.6,74.3a59.07,59.07,0,0,1-21.5-23.4c-15.7-29.2-10.5-53.8,15.7-74.3-25.7,34.5-23.9,66.7,5.8,97.7ZM243,778.29c0,15.2-3.5,26.3-9.9,32.8,4.1-8.8,5.8-20.5,5.2-35.7l-1.8-37.4c4.8,13.4,6.5,26.8,6.5,40.3Zm79.8-28.7L296,827.39a1095.54,1095.54,0,0,1-153.7,208.3l40.2-59.1c12.1-17.5,25-34.4,38.4-50.9,44.3-53.2,78.6-111.7,101.9-176.1Zm-195,176.1-.6-30.4c7.6,26.3,7,50.9-2.3,74.3C127.82,951.39,128.92,936.79,127.82,925.69ZM260.52,1433a154.74,154.74,0,0,1,13.4-23.4,74.56,74.56,0,0,0,12.2-26.9C287.32,1409,278,1425.39,260.52,1433Zm-99-213,36.1-22.2c-61.7,40.4-99,97.1-112.4,170.3l-1.2,11.7c-.5-65,25.7-118.8,77.5-159.8Zm117.6,437c-33.8-17.6-55.3-45.7-65.2-86.6-11.1-45.7-5.2-79.6,16.9-101.8-15.7,36.9-18.6,72.6-8.7,106.5,11.1,39.2,37.3,67.9,78.6,86.6-122.8,11.1-202-62-236.4-218.2,31.4,128.7,103.6,200.1,214.8,213.5Z"/><path class="cls-1" d="M319.92,575.79c9.3-12.9,10.5-26.9,2.9-42.7-7-15.8-18.6-24.6-34.3-26.3,9.9,4.7,19.2,15.2,26.8,32.8C323.42,556.49,324.52,568.79,319.92,575.79ZM190.62,584a59.8,59.8,0,0,0,21.5,23.4c-29.7-31-31.4-63.2-5.8-97.7-26.1,20.5-31.4,45.1-15.7,74.3Zm42.5,227c6.4-6.4,9.9-17.5,9.9-32.8a123.58,123.58,0,0,0-6.4-40.4l1.8,37.4c.6,15.4-1.2,27.1-5.3,35.8Zm62.9,16.4,26.8-77.8c-23.3,64.4-57.6,122.9-101.9,176.1q-20.25,24.75-38.4,50.9l-40.2,59.1A1092.4,1092.4,0,0,0,296,827.39Zm-168.8,67.9.6,30.4c1.2,11.1,0,25.7-2.9,43.9,9.3-23.4,9.8-48,2.3-74.3Zm146.7,514.3a159.15,159.15,0,0,0-13.4,23.4c17.5-7.6,26.8-24,25.6-50.3A75.33,75.33,0,0,1,273.92,1409.59Zm-76.3-211.8-36.1,22.2c-51.8,41-78,94.8-77.4,159.7l1.2-11.7q20-109.65,112.3-170.2Zm16.3,372.7c9.9,40.9,31.4,69,65.2,86.6-111.2-13.4-183.4-84.8-214.8-213.5,34.3,156.2,113.5,229.4,236.4,218.2-41.3-18.7-67.5-47.4-78.6-86.6-9.9-33.9-7-69.6,8.7-106.5-22.1,22.2-27.9,56.1-16.9,101.8Z"/><path class="cls-3" d="M303.62,1600.89c-9.3-12.3-12.8-27.5-10.5-45.1,1.2-16.4,6.4-30.4,16.3-42.7-33.8-5.3-50.7,9.4-51.8,43.9-1.2,29.8,14.5,43.9,46,43.9Z"/><path class="cls-2" d="M1599.62,436l14.6-11.7c21.5-15.2,44.8-24.6,70.5-29.3l-9.9-2.3c-31.4,2.3-60.5,12.3-87.3,28.1-5.8,9.9-17.5,17-34.3,21.6a795.34,795.34,0,0,0-93.8,79c-29.1,29.2-62.9,53.2-100.1,69.6l-21,7-15.7,11.7c65.2-1.8,121.1-26.3,168.3-73.7q44.1-43.2,90.3-84.3l18.4-15.7Zm-92,59.1,76.9-62.6a1024.76,1024.76,0,0,1-147.3,128.7Z"/><path class="cls-1" d="M1584.52,432.49l-76.9,62.6-70.5,66.1a1020.19,1020.19,0,0,0,147.4-128.7Z"/><path class="cls-2" d="M1614.22,437.79c5.8-4.7,7.6-8.2,5.2-11.1l-68.7,69,1.2,3.5c1.7,7.6,1.7,14.6-.6,20.5l-2.3,6.4-1.2,2.9c-4.1,7.6-11.1,12.9-19.8,16.4,12.2-9.9,17.5-22.8,15.7-38.6-12.2,6.4-19.8,17-22.1,31-2.3,9.9-8.1,16.4-17.5,18.7l12.2-12.9-.6-9.4c-56.5,55.6-122.8,83.1-200.3,82.5l-16.9,9.9a106.47,106.47,0,0,0,16.3,6.4,136.92,136.92,0,0,0,20.4,6.4l36.1,8.2,61.7,2.3c48.3-3.5,93.7-17.5,138-43.3l2.9-1.8,2.9-1.8,1.8-.6,1.2-1.2,1.8-.6,9.9-7-2.3-9.4,22.1,23.3a87.05,87.05,0,0,0,29.7,19.3l2.9,1.2a46.63,46.63,0,0,0,24.4,4.7c18.1.6,34.3-6.4,50.1-19.9a54.15,54.15,0,0,0,19.2-33.3v-4.1c1.2-4.7,0-8.8-1.8-12.3-7-13.5-16.3-25.7-26.2-36.9-22.1-5.3-43.1-1.8-62.3,11.7-18.1,13.5-39,19.9-61.7,19.3l-8.7,7.6-.6.6,1.2-1.2,7.6-1.8,16.9-1.2c-5.2,7-12.8,11.1-22.1,12.3l-19.2,5.8-3.5,1.2-26.8.6-18-4.1-16.3,9.4c2.3,1.2,5.2,2.3,7.6,4.1l7,2.3,41.9-3.5a200.91,200.91,0,0,1-25,13.5l-23.9,7-10.5,1.8-16.9,1.8,3.5-1.8-.6-.6a32.76,32.76,0,0,1-16.9-8.2l-2.9,2.9c-9.9,8.2-20.4,13.5-30.9,15.2,4.7,3.5,6.4,5.8,5.8,7l-8.7,1.8-44.3-1.8-37.8-1.2,30.3-4.7a176.72,176.72,0,0,0,44.3-8.8,132.36,132.36,0,0,0,53.6-28.1l-3.5,7a6.1,6.1,0,0,0,3.5-1.2l8.2-4.7.6-1.2,5.8-6.4c5.2-4.7,9.9-8.2,16.3-9.9l-1.8,4.7c-.6,1.2.6,1.2,1.2,1.8l22.7-20.5-3.5,8.2,4.1,1.2,7-5.8,7-8.8c5.2-7,8.2-7.6,8.7-2.9l4.6-1.8h.6l3.5-1.8,4.7-4.1,1.2-1.2,8.7-8.8,2.9-2.9.6,5.3,25-21.6-4.7,7.6,9.9-.6,14.6-18.1.6-1.2,6.4-7q40.65-36.3,83.2-70.2l9.9-12.3L1644,467a54.32,54.32,0,0,1-29.7,13.4l76.9-73.1-1.8.6c-28.5,21.7-55.9,45.1-80.9,70.8l-2.9,2.9.6,11.1-12.8,15.2a86.73,86.73,0,0,1,3.5-18.1l.6-7.6a18.58,18.58,0,0,1,3.5-8.2c13.4-19.9,27.4-36.9,43.1-51.5l-64.6,58.5-4.7,34.5-9.3,5.3,1.2-4.7.6-.6,5.8-24,.6-7-1.2,2.3a18.9,18.9,0,0,1,3.5-7.6,276.72,276.72,0,0,1,38.2-41.4Zm93.1,116.4v4.7c-26.8-.6-52.4,5.3-77.4,15.8C1654.42,561.79,1680.52,554.79,1707.32,554.19Zm-8.7,22.2-.6.6-11.6,6.4-14.6-1.2h-1.2a246.22,246.22,0,0,1-29.7,9.9l-23.3,4.7-11.6-7.6a188.42,188.42,0,0,1,27.9-11.7l20.4-7c12.2-4.1,23.3-4.1,33.2-.6l11.1,4.7.6.6-.6,1.2Zm16.9,8.2a67.88,67.88,0,0,1-19.2,19.3l-7,4.7c13.4-11.7,23.3-25.7,29.1-41.5l3.5-20.5c4.1,14,1.7,26.9-6.4,38Zm-168.9,4.1-6.4-.6,11.6-5.8,16.9-1.2a47.16,47.16,0,0,1-22.1,7.6Z"/><path class="cls-1" d="M1707.32,558.89v-4.7a173.23,173.23,0,0,0-77.4,20.5C1654.92,564.09,1680.52,558.29,1707.32,558.89ZM1698,577l.6-.6.6-1.2-.6-.6-11.1-4.7a151.39,151.39,0,0,0-53.6,7.6,184.06,184.06,0,0,0-27.9,11.7l11.6,7.6,15.1-4.7-17.5-3.5c22.1-11.7,44.8-16.4,68.7-15.8l-12.2,9.4,14.6,1.2L1698,577Z"/><path class="cls-4" d="M1632.82,592.19h8.2a258.52,258.52,0,0,0,29.7-9.9h1.2l12.2-9.4c-23.9-.6-46.6,4.1-68.7,15.8l17.4,3.5Z"/><path class="cls-1" d="M1718.42,567.09l-1.8,5.8a62.15,62.15,0,0,1-11.6,22.2l2.3-2.3,8.2-8.2c8.2-11.1,10.5-24,6.4-38Z"/><path class="cls-4" d="M1540.22,588.09l6.4.6a48.29,48.29,0,0,0,22.1-7.6l-16.9,1.2-11.6,5.8Z"/><path class="cls-1" d="M1608.42,478.69l1.2-12.9a55.44,55.44,0,0,0-12.8,24,86.44,86.44,0,0,0-3.5,18.1l12.8-15.2-.6-11.1,2.9-2.9Zm-41.4,36.9-.6.6-1.2,4.7,9.3-5.3,2.9-32.8-10.4,32.8Z"/><path class="cls-1" d="M1620,497.39l-.6,1.2-14.6,18.1-9.9.6,4.7-7.6-25,21.6-.6-5.3-2.9,2.9-9.9,9.9-4.7,4.1-3.5,1.8a5,5,0,0,1-3.5,1.8h-1.8c-2.3-4.1-5.2-1.8-11.1,7.6A23.83,23.83,0,0,1,1525,564l-4.1-1.2,3.5-8.2-22.7,20.5c-.6-.6-1.8-.6-1.2-1.8l1.8-4.7c-6.4,1.8-11.1,5.3-16.3,9.9l-5.8,6.4-.6,1.2c-2.3,4.7-6.4,6.4-11.6,5.8l3.5-7a131.72,131.72,0,0,1-53.6,28.1,180.36,180.36,0,0,1-44.3,8.8l-30.3,4.7,37.8,1.2-16.9-2.3,64-4.7c10.5-1.8,20.9-7,30.9-15.2l2.9-2.9a33.2,33.2,0,0,0,16.9,8.2l.6.6,26.2-5.8-12.8,5.8,10.5-1.8,23.9-7a200.91,200.91,0,0,0,25-13.5l-41.9,3.5-7-2.3c-2.3-1.8-5.2-2.9-7.6-4.1l16.3-9.4,18,4.1,26.8-.6,3.5-1.2,12.8-5.3-13.4-1.2h-17.5l-6.4-2.3,11.6-11.1,22.7,8.2,5.8-2.3c2.9-5.8,8.7-10.5,17.5-13.4l-13.4,3.5c-7.6,5.3-15.7,7-23.9,5.3l-5.8-2.9,19.2-18.7,10.5-2.3,2.9-4.7c15.7-4.1,29.1-11.7,40.8-21.1l1.8-7.6,2.3-7,9.3-12.3a140.39,140.39,0,0,0-17.2,13.5Zm-131.6,106.5-7-2.3c10.5-9.9,20.4-11.1,30.9-3.5l18-4.1-18,4.7c-4.7,4.6-13.4,7-23.9,5.2Z"/><path class="cls-2" d="M1481.42,601.59l7,2.3c10.5,1.8,19.2-.6,23.9-5.3h-1.2l1.2-.6c-10.5-7.5-20.4-6.4-30.9,3.6Z"/><path class="cls-4" d="M1512.32,598.09l-1.2.6h1.2l18-4.7Z"/><path class="cls-2" d="M1518.12,440.09c35.5-1.8,57.1-11.1,65.2-28.1,11.6-25.7-6.4-57.9-55.3-96.5-72.2-45-150.2-67.3-235.2-67.9a125.42,125.42,0,0,0-51.2,10.5c-32,14.6-39.6,37.5-23.9,67.9h1.2l.6-8.8q39.3,60.6,160.7,99.5c54.7,17.6,100.6,25.2,137.9,23.4Zm-17.5-120.5a37.72,37.72,0,0,1,17.5,24.6c-3.5,5.8-7.5,9.9-13.4,11.7-26.2,7-46.6-1.2-60.6-25.7a17.6,17.6,0,0,0-9.3-7l20.4,4.7-22.1-17,15.7,4.1-32-20.5,29.1,7.6-33.2-18.7A284.12,284.12,0,0,1,1500.62,319.59Zm72.2,62.6c2.3,12.9-2.3,22.8-14.6,31-14,8.8-34.3,12.3-62.3,10.5-31.4-1.2-71-9.9-115.9-26.3-44.8-15.2-79.8-32.2-104.2-49.2-22.1-15.2-35.5-29.8-40.2-44.5-4.1-12.9-1.8-23.4,7.6-32.2,8.2-8.2,20.4-12.3,34.9-12.9-23.9,14.6-32,24.6-23.9,28.7,1.2,0,4.1-1.2,9.9-4.1,6.4-4.1,11.6-5.8,15.7-5.8l-.6,3.5c-19.8,11.7-26.2,18.7-18.7,21.6,15.1-7,23.3-9.4,25.1-7.6-19.2,11.7-25.1,19.9-17.5,24,9.3-8.2,18.1-12.9,26.2-14-15.7,14-21.5,22.2-16.3,25.2,14.6-8.2,22.7-12.3,25-12.3v1.8c-15.7,8.8-20.4,15.2-14,19.9,13.4-7.6,19.8-9.9,19.8-7-14,8.2-17.5,14.6-10.5,18.7,11.1-6.4,18.1-8.8,22.1-7.6a27.94,27.94,0,0,0-7.6,9.4c-1.8,4.7-1.8,6.4,1.2,5.8l16.3-1.8-7,4.7c-4.7,2.9-4.7,5.3-1.2,7.6,4.1-2.3,8.7-2.3,14.5,0,10.5,13.5,15.1,7.6,14.6-18.1,19.2-5.3,39-.6,58.8,13.4-29.1-8.8-48.3-11.7-56.5-7.6-.6,4.1,6.4,7,19.8,8.8,15.1,1.2,23.9,3.5,25.1,6.4-27.4-4.1-39.6-3.5-38.4,2.9,37.8,1.8,64.6,13.5,81.5,35.7,3.5-5.3-1.2-13.4-14.6-24,4.1-2.9,15.7,5.8,34.3,26.9,5.2-3.5,1.2-12.3-12.8-26.9,2.9,0,9.9,5.3,19.8,15.2l15.7,14c7-3.5,2.9-13.4-11.1-29.2,3.5-.6,9.3,4.1,16.9,14l12.2,14c7.6-2.9,3.5-13.5-12.2-32.2,8.2,0,17.5,10.5,29.1,32.2,5.2-8.8,1.2-21.1-12.2-36.9,7-1.2,16.3,10.5,27.4,33.3,8.2-8.2,4.1-22.8-15.1-43.3,11.6,2.3,21.6,14.6,29.1,36.9,8.7-9.4,3.5-24.6-15.1-44.5,10.5,2.9,19.8,14.6,29.1,36.3,5.2-11.1,0-26.3-16.9-45.1,15.5,8.5,24.2,19,27.7,30.7Zm-216.5-88.4,25,5.3-46,1.8-4.1-6.4Zm-30.3-7.6-2.9-7c20.9-5.3,41.9-3.5,62.9,4.1Zm23.8,58.5-.6-8.2,29.7,1.8Zm1.2-14.6-5.2-5.8,39.6,1.8Zm-7.6-13.5-3.5-8.8,41.9,3.5a137.06,137.06,0,0,0-38.4,5.3Zm-26.1-45.6-7-9.9,53,5.8-46,4.1Zm-26.8-2.9c29.1,17,46.6,41.5,51.2,74.3l1.8,10.5C1312.62,333,1294.52,305,1290.52,268.09Zm52.4,129.3-22.1-14a734.36,734.36,0,0,0,118.2,39.2l-6.4,2.9a268,268,0,0,1-110-32.8l20.3,4.7Z"/><path class="cls-4" d="M1518.12,344.19a37.53,37.53,0,0,0-17.5-24.6,289.29,289.29,0,0,0-87.9-36.3l33.2,18.7-29.1-7.6,32,20.5-15.7-4.1,22.1,17-20.4-4.7a18.11,18.11,0,0,1,9.3,7c14,24.6,34.3,32.8,60.6,25.7,5.9-1.7,9.9-5.8,13.4-11.6Z"/><path class="cls-1" d="M1558.32,413.19c12.2-8.2,16.9-18.1,14.6-31-3.5-11.7-12.2-22.2-27.4-30.4,16.9,18.7,22.1,33.9,16.9,45.1-9.3-21.7-18.6-33.3-29.1-36.3,18.7,19.9,23.9,35.1,15.1,44.5-7.6-22.2-17.5-34.5-29.1-36.9,19.2,20.5,23.3,35.1,15.1,43.3-11.1-22.8-20.4-34.5-27.4-33.3q20.1,23.7,12.2,36.9c-11.6-21.6-20.9-32.2-29.1-32.2,15.7,18.7,19.8,29.3,12.2,32.2l-12.2-14c-7.6-9.9-13.4-14.6-16.9-14,14,15.8,18,25.7,11.1,29.2l-15.7-14c-9.9-9.9-16.9-15.2-19.8-15.2,14,14.6,18.1,23.4,12.8,26.9-18.7-21.1-30.3-29.8-34.3-26.9,13.4,10.5,18,18.7,14.6,24-16.9-22.2-43.7-33.9-81.5-35.7-1.2-6.4,11.1-7,38.4-2.9-1.2-2.9-9.9-5.3-25.1-6.4-13.4-1.8-20.4-4.7-19.8-8.8,8.2-4.1,27.4-1.2,56.5,7.6-19.8-14-39.6-18.7-58.8-13.4.6,25.7-4.1,31.6-14.6,18.1-5.8-2.3-10.5-2.3-14.5,0-3.5-2.3-3.5-4.7,1.2-7.6l7-4.7-16.3,1.8c-2.9.6-2.9-1.2-1.2-5.8a30,30,0,0,1,7.6-9.4c-4.1-1.2-11.1,1.2-22.1,7.6-7-4.1-3.5-10.5,10.5-18.7,0-2.9-6.4-.6-19.8,7-6.4-4.7-1.8-11.1,14-19.9v-1.8c-2.3,0-10.5,4.1-25,12.3-5.2-2.9.6-11.1,16.3-25.2-8.1,1.2-16.9,5.8-26.2,14-7.6-4.1-1.8-12.3,17.5-24-1.8-1.8-9.9.6-25.1,7.6-7.5-2.9-1.2-9.9,18.7-21.6l.6-3.5c-4.1,0-9.3,1.8-15.7,5.8-5.8,2.9-8.7,4.1-9.9,4.1-8.2-4.1,0-14,23.9-28.7-14.6.6-26.8,4.7-34.9,12.9-9.3,8.8-11.6,19.3-7.6,32.2,4.7,14.6,18.1,29.3,40.2,44.5,24.4,17,59.4,33.9,104.2,49.2,44.8,16.4,84.4,25.1,115.9,26.3,27.6,1.5,48-2,62-10.8Z"/><path class="cls-1" d="M1381.32,299.09l-25-5.3-25,.6,4.1,6.4Zm-58.2-19.9,2.9,7,60-2.9C1365,275.69,1344,274,1323.12,279.19Zm26.2,57.3.6,8.2,29.1-6.4Zm-3.5-12.2,5.2,5.8,34.4-4.1Zm-5.9-16.4,3.5,8.8a132.51,132.51,0,0,1,38.4-5.3l-41.9-3.5Zm-29.6-46.8,7,9.9,46-4.1-53-5.8Z"/><path class="cls-4" d="M1341.72,342.39c-4.7-32.8-22.1-57.3-51.2-74.3,4,36.9,22.1,65,53,84.8Zm-21,41,22.1,14-20.4-4.7a271.06,271.06,0,0,0,110,32.8l6.4-2.9a760.41,760.41,0,0,1-118.1-39.2Z"/><path class="cls-2" d="M1713.22,443l-85,53.2-2.3,7,13.4-8.2a406.39,406.39,0,0,0,73.9-52Zm-20.4,47.4-68.7,20.5a107.9,107.9,0,0,1-40.8,21.1l-2.9,4.7-10.5,2.3-19.2,18.7,5.8,2.9c8.2,1.8,16.3,0,23.9-5.3a13.48,13.48,0,0,1-4.1-1.8l25.6-12.3a18.9,18.9,0,0,1-7.6-3.5l9.3-2.3v-3.5l89.2-41.5Z"/><path class="cls-5" d="M1217.72,326a105.56,105.56,0,0,0,21,25.2l17.5,13.4,8.7,5.8,1.8.6c-25-16.4-41.3-31-47.7-45.1l-1.3.1Z"/><path class="cls-2" d="M1313.82,396.79l5.8,7c-7.9-2.8-15.7-5.9-23.3-9.4l22.1,26.9c-7-4.7-14.6-9.9-22.1-14.6l20.9,27.5-18.7-12.9,12.2,21.1-16.9-14.6,8.1,22.8c-18-22.2-28.5-47.4-30.9-76.7l-4.7-2.9-1.8-.6-1.2,1.8.6,7-7,9.4,2.3-10.5-13.4,1.2-3.5,18.1,13.4,14.6,11.6,4.7.6,6.4-17.5-6.4-8.7-4.7-.6,5.8c-16.3-.6-23.9-9.4-22.1-25.2l8.1-5.8-5.2,5.8,1.2,8.2,3.5-.6c8.7-5.8,10.5-13.5,5.2-21.6l7.6-1.2c6.4-2.3,11.6-5.8,15.1-11.1l1.2-1.8-17.5-13.4-1.8,2.9,6.4,4.1-8.7,2.9,1.8-5.3a86.45,86.45,0,0,0-5.2,16.4l-1.2,11.1-25-12.3c-4.1,10.5-3.5,21.6,2.3,34.5a80.23,80.23,0,0,0,24.4,32.8l4.1.6v-4.7l-19.8-19.3,25.6,15.2.6,2.9,22.1-.6-3.5,4.1-1.2,1.8-7-.6-.6,11.7-4.1-1.8.6-2.3c0-4.7-1.8-5.8-6.4-4.1a36.19,36.19,0,0,1-8.7,6.4c2.3,5.8.6,7-5.2,2.9a4,4,0,0,1-2.3-1.2l-5.8-1.2a45.91,45.91,0,0,0-2.9,30.4h2.3c-2.9-6.4-1.8-10.5,2.3-12.3l1.8,11.1,4.7,10-7-4.1-1.8.6-14.6,13.5c.6,9.9.6,13.5-1.2,11.1-33.8-37.4-44.8-79.6-32.6-127.5,5.8,8.8,8.2,18.7,6.4,30.4-1.2,12.3-1.2,22.2,1.8,29.8q21-57-1.8-91.3c-21.5-32.8-32.6-52.7-32-59.7l-5.2,6.4c-1.8-6.4-7.6-16.4-16.3-28.7-36.1,5.3-69.9,18.1-101.9,37.5h-2.9v2.3h8.2c-.6,4.1-2.9,5.8-7,5.3-8.1-2.3-12.2-6.4-11.1-13.5.6-2.9,3.5-5.3,9.9-7l7,1.8c-4.1-9.4-11.1-9.9-21.5-2.3-6.4,5.3-8.1,10.5-5.8,15.8l1.2,1.8a21.08,21.08,0,0,1,8.7,8.8l6.4,1.8-2.3,4.7c2.3,4.1,1.2,7.6-2.3,11.7l-1.2,2.3-15.1-24-17.5-1.8-1.2-1.8-32,32.2,5.2.6,8.7.6-4.7,2.3-2.9,11.7c3.5-1.2,4.7,1.2,4.1,7.6l-1.2,12.9,8.7-4.1-1.2,5.3H961c2.9,2.3,3.5,5.8,1.2,10.5l9.3,25.7,6.4-5.9h2.3c2.9,1.8,4.1,4.7,2.9,8.8l9.3,8.2,2.9-7.6a39.8,39.8,0,0,1,9.9,10.5l25,9.4-5.8-4.7-9.8-5.9c-10.5-19.9-14-40.4-11.1-62.6a27.47,27.47,0,0,1,11.1-18.1c3.5,8.8,1.8,17-4.7,24.6,12.2,42.7,40.8,63.2,86.7,62.6l1.2.6,4.7-1.2c1.2,4.7.6,7-1.2,7.6s-3.5-1.2-4.7-4.7a7,7,0,0,1-5.2,1.8c1.7,5.3,1.7,7.6.6,7.6l-8.1-5.3-31.4-3.5-1.2,6.4v1.2c9.9,12.3,22.1,22.8,36.7,29.8l4.7,1.8,4.1-1.2-27.4-31,31.4,26.3,7-19.9c3.5,23.4-6.4,42.1-30.3,54.4l16.3-22.2-22.1-9.4-19.8,10.5,12.2-10.5-15.7-11.1,10.5,4.1,2.3-2.9c-7-5.3-10.5-11.7-10.5-19.3l.6-.6-14.6-7,1.7,15.8-9.9,1.8,9.3,25.1-3.5,6.4,15.7,16.4,19.2,8.2c-2.9,5.8,0,11.1,8.1,15.2v-1.2l34.9-17.6a31.07,31.07,0,0,0-4.1-25.7c7.6,3.5,12.2,8.8,12.8,17a27,27,0,0,1,6.4,11.1c-4.1-1.8-6.4-2.9-7.6-4.1l-1.8,5.3-3.5,21.1,16.9,6.4v-1.8l41-49.9,2.3,12.3,20.4,27.5,18.6-9.4c.6-5.8,2.3-10.5,6.4-14,8.1-8.2,14-8.8,17.5-1.2l2.9.6,8.2-14.6c-5.2,19.3-2.9,38,8.1,55.6,17.5,26.9,41.3,42.1,71.6,45.1,25-.6,40.2-12.9,45.4-36.9l-4.7-.6-9.3,4.7a39.38,39.38,0,0,1-22.1,2.9c-14.5-.6-26.8-5.8-35.5-15.8l19.2,6.4c4.7,1.8,8.7.6,12.2-2.3l-17.5-13.4,9.9,2.3c8.7,2.9,15.1,1.8,19.2-2.3-7.6-4.1-14-8.2-21.5-12.3l24.4,4.1c-26.8-7-48.9-20.5-66.4-41l2.3,7a43.17,43.17,0,0,0,12.2,18.7l-.6,1.8,21.6,15.8-16.9-6.4,3.5,12.9-14.4-6.5,5.2,11.1-11.6-2.9,1.2,7-16.3-4.1,24.5-25.7,2.3-2.9-19.2-19.9,4.7,21.6-11.1-13.5,8.2,25.2c-14-14.6-16.9-31-8.7-49.7l4.1-7h-1.2c-4.7-8.8-4.7-17.5-.6-26.3l.6,5.3q10.5,47.4,59.4,66.7a199.68,199.68,0,0,0,73.9,12.3c8.7-1.8,15.1-6.4,19.8-14.6l7-15.2c-34.9,8.8-68.1,4.1-100.2-13.4-6.4-4.1-11.6-9.4-14-15.8q22.2,12,44.8,22.8l-10.5-8.2,33.8,4.1-24.4-12.3,37.8,1.8-30.9-13.4,40.2,2.9-31.4-14,41.3,1.8-36.1-13.5,55.3,1.8a549.14,549.14,0,0,1-123.4-43.7Zm21.5,37.5-5.2-9.4,18.7,11.7a81.84,81.84,0,0,1-17.5,31l-14.5-3.5,1.8-5.8-4.7-2.9,13.4-1.8-11.6-9.4h14.5l-11.1-12.3Zm-75.7-39.8,9.9-5.8,2.9,8.2-18.6,12.3-3.5-11.7,9.3-3Zm-35.5-3.5h4l-1.8,3.5-2.2-3.5Zm51.8,24.5c-4.7,2.3-8.7.6-12.2-5.3Zm-15.1,28.7,1.2,4.7c.6,4.7-1.2,8.2-5.2,9.9C1253.82,454.09,1255.52,449.49,1260.82,444.19Zm-15.2,31.6-1.2,1.2C1245.12,467.59,1245.62,467,1245.62,475.79Zm47.8-2.9a55.07,55.07,0,0,1-11.1-24c-1.8-8.8,0-12.3,4.7-8.8l15.1,26.3-11.1-7,2.4,13.5Zm36.1,30.4,13.4,5.8c12.2,4.1,25,4.1,38.4.6l-38.4-15.2a186.3,186.3,0,0,0,72.2,11.1h1.2c-15.1,12.3-33.8,16.4-55.3,11.7A76,76,0,0,1,1329.52,503.29Zm-42.5,58.5c11.6,8.2,23.9,12.3,36.7,11.1l-28-19.9c19.8,13.5,41.3,17.6,64.6,14-1.2,5.3-5.2,9.4-11.6,11.7-26.8,7.6-50.1,0-69.3-21.6l7.6,4.7Zm-158.4-270.9a24.25,24.25,0,0,1-9.3,0c-16.9-5.8-25.6-1.8-26.2,12.9,11.6,1.8,23.9,7.6,36.7,17.6,15.1,11.7,26.2,26.3,31.4,43.9-14.6,25.2-15.1,59.7-2.3,103l-14.6,26.9-4.1,9.9c-4.1-13.4-12.2-21.6-25.6-25.1l13.4-11.7.6-24-.6-5.8a40.45,40.45,0,0,1-9.3,4.1c1.8,3.5,1.8,5.8,0,8.2l-6.4-8.2c-3.5-.6-6.4-2.9-8.7-7h2.9a176.88,176.88,0,0,1-51.8-13.5c-4.1-1.8-9.3-4.1-13.4-7l76.3,13.5,8.7-4.7-1.2-1.8,14.6-36.9-8.7-10.5h-8.7a15.1,15.1,0,0,1-7.6,5.3l-4.7,8.8a27.4,27.4,0,0,0,12.2,14.6l-7.6,4.1c.6,5.3-1.2,7.6-5.2,7-3.5-1.2-4.1-4.7-1.8-11.1-16.9,11.7-34.4,12.3-53,2.3-18.6-10.5-27.4-26.3-27.4-47.4,0-16.4,6.4-29.3,18.1-39.2,5.2,4.1,4.1,8.2-1.8,12.9l-3.5,2.9c8.1,1.8,15.1.6,21.5-3.5l6.4-4.7,4.1,5.3-8.7,10.5-4.1-.6-8.7,4.7-13.4-5.9-1.8,29.8,21.5-16.4,8.2,5.8,10.5-13.5h4.1l14.6-15.2,2.9,9.4-9.9,7h-4.1l-2.3,12.3-17.5,2.9c-8.1,4.7-16.9,9.4-25.6,13.4l1.2,3.5c8.2,4.7,12.8,11.1,13.4,19.9l.6,1.2,4.7-3.5c8.7,0,15.1,4.7,18.1,13.4l29.1-16.4c-7.6,2.9-15.1,6.4-22.7,9.4,0-9.9,6.4-17,17.5-19.9l4.7,2.3,5.8-8.2c1.2-1.8,1.7-4.1.6-5.8-2.3-5.3-1.2-8.2,2.9-8.2l5.8-12.9-4.7,1.7a22.34,22.34,0,0,1-12.8,2.3l7.6-11.1-2.9-9.9,8.7,1.2-9.3-9.4c-2.3,5.3-5.2,5.8-9.3,1.8-5.8-4.7-6.4-7.6-2.9-6.4l12.2-5.3-17.5-6.4c-3.5,2.3-5.2,1.8-4.1-1.8,8.1-26.7,22.7-32.6,44.2-16.8Zm-129.8,46.8,4.1,10.5c-12.8-2.3-23.3.6-32.6,8.8l1.2-7Zm65.7-25.7-12.2.6c8.7-7.6,15.1-8.8,18.6-4.1.6,1.7-1.1,2.9-6.4,3.5Zm69.3,69-1.8,7,2.3,3.5-7,1.2-2.9-10.5,9.4-1.2-33.8-18.1c1.8,2.3,2.3,5.8,1.8,9.9l-8.7.6c-5.2,1.8-8.2,2.3-9.3,1.2l-.6-1.8c8.1-5.8,11.1-11.1,9.9-16.4l7,6.4Z"/><path class="cls-4" d="M1330,424.89l5.2,9.4-16.3-2.3,11.1,12.3h-14.5l11.6,9.4-13.4,1.8,4.7,2.9-1.8,5.8,14.5,3.5a81.84,81.84,0,0,0,17.5-31l-18.6-11.8Z"/><path class="cls-1" d="M1269.52,388.59l-9.9,5.8-9.3,2.9,3.5,11.7,18.6-12.3-2.9-8.1Z"/><path class="cls-4" d="M1228.22,391h-4l2.3,3.5,1.7-3.5Z"/><path class="cls-1" d="M1263.72,410.29c3.5,5.8,7.6,7.6,12.2,5.3Zm-1.8,38.6-1.2-4.7c-5.2,5.3-7,9.9-4.1,14.6C1260.82,457.09,1262.52,453.59,1261.92,448.89Zm-17.4,28.1,1.2-1.2C1245.62,467,1245,467.59,1244.52,477Zm37.8-28.1a53.81,53.81,0,0,0,11.1,24l-2.3-13.5,11.1,7-15.1-26.3c-4.8-3.5-6.5,0-4.8,8.8Zm60.6,60.2-13.4-5.8a76.18,76.18,0,0,0,31.4,14c21.5,4.7,40.2.6,55.3-11.7H1415a186.74,186.74,0,0,1-72.2-11.1l38.4,15.2c-13.3,3.5-26.1,3.5-38.3-.6Zm-19.2,63.8c-12.8,1.2-25.1-2.9-36.7-11.1l-7.6-4.7c19.2,21.6,42.5,29.2,69.3,21.6,6.4-2.3,10.5-6.4,11.6-11.7-23.3,3.5-44.8-.6-64.6-14l28,19.9Zm-204.4-282a24.25,24.25,0,0,0,9.3,0c-21.5-15.8-36.1-9.9-44.3,17-1.2,3.5.6,4.1,4.1,1.8l4.7-5.8c.6-14.7,9.3-18.8,26.2-13Zm-13.4,25.2-12.2,5.3c-3.5-1.2-2.9,1.8,2.9,6.4,4.1,4.1,7,3.5,9.3-1.8l4.7-1.8c5.2-1.2,7.6-2.9,7-4.7-1.2-3.5-2.9-5.8-5.8-7l-5.9,3.6Zm.6,18.1,2.9,9.9-7.6,11.1a23.19,23.19,0,0,0,12.8-2.3l4.7-1.8-5.8,12.9c-4.1,0-5.2,2.9-2.9,8.2,1.2,1.8.6,4.1-.6,5.8l-5.8,8.2-4.7-2.3c-11.1,2.9-17.5,9.9-17.5,19.9,7.6-2.9,15.1-6.4,22.7-9.4l5.2-5.8,4.7-8.8a15,15,0,0,0,7.6-5.3c7.6-17.5,4.7-33.9-7.6-50.3l.6,11.1-8.7-1.1Zm-23.3,13.5h4.1l9.9-7-2.9-9.4-14.6,15.2h-4.1l-10.5,13.5-8.2-5.8-21.5,16.4,1.8-29.8,13.4,5.8,8.7-4.7,4.1.6,8.7-10.5-4.1-5.3-6.4,4.7c-6.4,4.1-13.4,5.3-21.5,3.5l-1.2-.6c-2.3,0,0-5.3,6.4-15.2-11.6,9.9-18.1,22.8-18.1,39.2,0,21.1,8.7,36.9,27.4,47.4l11.1,3.5c-12.2-4.1-21-14-26.8-29.3l-1.2-3.5c8.7-4.1,17.3-8.6,25.6-13.4l17.5-2.9Zm-41.9,67.2a71.77,71.77,0,0,0,13.4,7c16.9,7,33.8,11.7,51.8,13.5l5.8,7,6.4,8.2c1.8-2.3,1.8-4.7,0-8.2l-7-7,8.2-3.5-2.3-3.5Zm107.1-22.8,7.6-23.4c.6-1.8,0-2.3-2.9-.6l-12.8,7-12.2-2.9,2.9,2.3,8.7,10.5-14.6,36.9c10.5-8.1,18.6-18.1,23.3-29.8Z"/><path class="cls-2" d="M1153.12,368.09l-5.8.6-7,6.4,12.8-7Z"/><path class="cls-1" d="M1107.62,403.19c-2.3,6.4-1.7,9.9,1.8,11.1,4.1.6,5.8-1.8,5.2-7,1.2-6.4-1.2-8.2-6.4-5.8Z"/><path class="cls-5" d="M1125.12,422l1.2,1.8c9.9-7.6,17.5-18.1,22.1-31.6-4.7,11.6-12.8,21.6-23.3,29.8Z"/><path class="cls-1" d="M1128.62,444.19l-.6,24-13.4,11.7c13.4,3.5,21.5,11.7,25.6,25.1l4.1-9.9-9.9-18.1,1.2-4.1c4.7-12.3,4.1-24.6-2.9-37.4Zm-125.8-96-4.1-10.5L971.32,350l-1.2,7C979.52,348.79,990,345.89,1002.82,348.19Zm129.3,39.8,1.8-7-9.3,1.2,2.9,10.5,7-1.2Zm-30.3-15.2c.6-4.1,0-7.6-1.8-9.9l-7-6.4c1.2,5.3-1.8,10.5-9.9,16.4l.6,1.8c1.2,1.2,4.1.6,9.3-1.2Zm161.9-.6c-1.2-2.9-4.1-5.3-8.7-5.8-3.5,5.3-8.7,8.8-15.1,11.1l-7.6,1.2c5.2,8.2,3.5,15.8-5.2,21.6l-3.5.6-1.2-8.2,5.2-5.8-8.1,5.8c-1.8,15.8,5.8,24.6,22.1,25.2l.6-5.8,8.7,4.7,17.5,6.4-.6-6.4-11.6-4.7c-7-4.1-12.2-5.3-14.6-4.7l-1.8,2.9-2.3-1.2-6.4-3.5,9.3-4.1,2.3-4.1,3.5-18.1,13.4-1.2-2.3,10.5,7-9.4-.6-7Zm-26.8-18.1-.6,1.8-1.7,5.3,8.7-2.9-6.4-4.2Z"/><path class="cls-5" d="M1237.52,409.09l2.3,1.2-2.3-2.3Z"/><path class="cls-1" d="M1240.42,433.69l1.2-3.5L1216,415l19.8,19.3v5.3l-.6,2.9,7-1.2c4.7-1.8,6.4-.6,6.4,4.1l-.6,2.3,4.1,1.8.6-11.7,8.1-1.2,3.5-4.1-22.1.6-1.8.6Z"/><path class="cls-5" d="M1241.62,430.19l-1.2,3.5,1.8-.6-.6-2.9Zm19.2,6.4-8.1,1.2,7,.6Zm10.4,9.9-.6-5.3c-4.1,8.8-4.1,17.6.6,26.3h1.2Zm-35.5-7.6-4.1-.6,4.1,1.2v-.6Z"/><path class="cls-1" d="M1225.82,449.49a4.66,4.66,0,0,0,2.3,1.2c5.8,4.1,7.6,2.9,5.2-2.9-3.5-3.5-5.8-4.1-9.3-1.8Zm-4.1,16.9c-4.1,1.8-5.2,5.8-2.3,12.3.6,1.8.6,3.5,1.8,4.7l7,4.1-4.7-10Z"/><path class="cls-5" d="M1219.42,478.69h-2.3l2.3,5.3,1.8-.6C1220,482.19,1220,480.49,1219.42,478.69Z"/><path class="cls-1" d="M1223.52,512.09l1.8-4.7,12.2-4.7c-3.5-7.6-9.3-7-17.5,1.2-4.1,3.5-5.8,8.2-6.4,14Z"/><path class="cls-5" d="M1238.62,516.19l.6-5.3-3.5,2.3Z"/><path class="cls-2" d="M1238.62,516.19l-2.9-2.9-25,17.6v.6c2.3-1.8,2.9-.6,2.9,2.9,0,4.1-1.2,10.5-3.5,19.9-2.3-8.2-2.3-14.6-1.2-18.7H1206l-8.7,25.7c-2.9-11.1,0-20.5,8.1-26.9h-.6l-15.1,6.4,5.2-1.8-7,25.7-1.2-14-12.2,19.3.6-15.2-12.2,18.1,1.7-16.4-14.6,18.7,4.1-20.5-19.2,18.1,8.1-22.2-39-5.3-19.8,12.3,4.7-7-18.1,4.7,8.1-8.8-18.6,1.8,8.1-8.8-17.5,2.3,9.3-7-16.3-.6,8.7-4.7-32,10.5c10.5-11.7,23.9-16.4,38.4-14l-2.9-5.3a74.48,74.48,0,0,0-21.5-14h-1.2l-5.8-2.9h-.6l-12.2-2.3a24,24,0,0,0-14,4.7c-3.5,1.8-7.6-1.8-12.8-11.1-4.7-9.9-5.2-15.8-1.2-16.4h6.4l-1.8-10.5-6.4-7.6-29.7,3.5,12-10.6,1.8-1.8-7-10.5c-1.8,4.7-4.1,4.7-7.6-.6l-11.1-18.1-7-10.5-2.9,1.2,4.1,8.8-1.2,4.7,2.9,8.8,4.7,2.9-.6,4.7c0,2.9,1.2,3.5,2.9,3.5l-1.2,4.1c5.2,2.9,6.4,5.3,2.9,8.2l-5.8-2.3-12.8-50.3v-.6l-4.7-21.6,1.7-.6c-4.1-11.1-5.2-21.1-3.5-29.2,0-2.3,1.8-3.5,4.7-1.8h1.8l-.6-8.2-19.2-3.5a8.13,8.13,0,0,0,3.5-1.2l2.3-4.7,9.9,4.7,16.9-22.8-21-13.4-5.8-1.8-2.3-3.5-14.6,3.5a33.36,33.36,0,0,0-13.4,9.9c-7,10.5-2.3,21.6,14,32.8l12.2,56.2,1.2-1.2,4.1,1.8,24.4,81.3v9.4c1.2,5.3,3.5,9.9,7.6,13.4l11.1,4.1a97.46,97.46,0,0,0,26.2,34.5c5.8-16.4,16.3-26.3,30.3-31.6a98.15,98.15,0,0,0-21,27.5c-9.9,20.5-4.7,35.1,15.1,44.5l-.6-13.5c0-5.3.6-9.9,3.5-13.4l4.7-.6,8.7-7-.6,20.5,9.3-13.5,4.1,27.5,7.6-17.6a64.4,64.4,0,0,0,0,15.2c.6,4.7,2.9,7,6.4,8.8l6.4-15.2,7.6,26.3,5.2-19.3,2.3,8.8c2.9,9.9,5.8,14.6,7.6,14.6l2.9-19.3,12.8,30.4,1.8-23.4a47.76,47.76,0,0,0,16.3,29.8l-.6-25.2,15.1,27.5,2.9-2.3-1.2-15.8c1.2-2.3,1.8-2.3,2.9,0,4.7,11.7,9.3,18.7,14,22.2h3.5c.6,0,.6-1.2,0-2.9-5.8-12.9-7-19.3-2.9-19.3,7.6,15.8,15.1,24,23.3,24-5.8-8.2-8.1-15.8-7.6-23.4,14,17.5,21.5,24.6,22.1,21.1,1.2-3.5-2.3-11.7-8.7-23.4l14.6,12.9c4.1,5.3,9.3,7.6,13.4,7.6-2.3-2.9-5.8-10.5-9.3-23.4,11.6,17,20.4,22.8,26.2,17-2.9-1.2-7-8.2-12.8-20.5,16.3,14,25,19.9,26.8,17,.6-2.3-1.8-7-6.4-15.2l-6.4-9.9c15.1,15.8,25.1,21.1,29.7,16.4-5.8-3.5-11.1-9.9-15.7-20.5,13.4,12.9,23.9,17,30.9,12.9-5.2-2.9-11.1-9.4-18-19.3a86,86,0,0,0,16.3,9.4c7.6,2.9,11.6,3.5,12.8,2.9,1.2-1.2-1.8-5.3-8.2-12.3l-8.2-8.2a141.09,141.09,0,0,0,23.3,11.7l1.2-1.8c-33.8-21.9-51.2-44.1-50.7-66.3Zm-6.9,26.3-3.5-11.7,4.7-13.5-1.2,25.2Zm-14.6-7.6a11.9,11.9,0,0,1,4.1-9.4c2.3-1.8,2.9-1.2,2.9,2.9v1.8l-2.9,18.1C1218.32,543.09,1217.12,538.39,1217.12,534.89Zm30.3,17.5,7,13.5c-53,32.8-108.3,35.7-166.5,10.5,56.4,12.3,109.4,4.7,159.5-24Zm-273.7-63.1,2.3.6-4.7,14,11.1-4.7-4.7,13.5,9.9-5.8-1.2,16.4,6.4-2.9-6.4,14c-11.6-5.8-20.4-17-25-33.9a17.89,17.89,0,0,1,12.3-11.2Zm-36.1-173.8c-.6,3.5-2.3,4.7-5.8,4.7h-7.5c-13.4,1.2-19.2,0-17.5-4.1,1.2-2.9,5.8-4.7,14-4.7l16.8,4.1Zm78.6,217.6,5.8-7.6c8.7-8.2,16.9-11.1,23.9-8.2l-29.7,15.8-10.5-1.8-3.4,18.2,7.6-4.1-4.1,26.3c-12.8-12.9-12.8-26.3,0-40.4Z"/><path class="cls-1" d="M1228.22,530.79l3.5,11.7,1.2-25.2-4.7,13.5Zm-7-5.3a11.63,11.63,0,0,0-4.1,9.4c0,3.5,1.2,8.2,4.1,13.5l2.9-18.1v-1.8C1224.12,524.39,1223.52,523.79,1221.22,525.49Z"/><path class="cls-4" d="M1254.42,565.89l-7-13.5c-50.1,28.7-103.1,36.3-159.5,24C1146.12,601.59,1201.42,598.69,1254.42,565.89Z"/><path class="cls-1" d="M976.12,489.79l-2.3-.6a18.06,18.06,0,0,0-12.2,11.1c4.6,17,13.4,28.1,25,33.9l6.4-14-6.4,2.9,1.2-16.4-9.9,5.8,4.7-13.5-11.1,4.7,4.6-13.9Z"/><path class="cls-4" d="M931.82,320.19c3.5,0,5.2-1.2,5.8-4.7l-16.9-4.1-1.8.6c-4.7,5.3-3.5,8.2,5.2,8.2Z"/><path class="cls-1" d="M919,312l1.8-.6c-8.2,0-12.8,1.8-14,4.7-1.8,4.1,4.1,5.3,17.5,4.1C915.52,320.19,914.32,317.19,919,312Z"/><path class="cls-4" d="M1022,525.49l-5.8,7.6,29.7-15.8C1038.92,514.39,1030.82,517.29,1022,525.49Z"/><path class="cls-1" d="M1002.32,549.49l3.5-18.1q-19.2,21,0,40.4l4.1-26.3Z"/><path class="cls-5" d="M1294.52,510.89l-2.3,2.9,3.5-1.2.6-1.8h-1.8Z"/><path class="cls-4" d="M1295.72,512.69l-3.5,1.2-24.5,25.8,16.3,4.1-1.2-7,11.6,2.9-5.2-11.1,14.5,6.4-3.5-12.9,16.9,6.4-21.4-15.8Zm68.7,112.9,16.9,2.3,44.3,1.8,8.7-1.8c.6-1.2-1.2-3.5-5.8-7l-64.1,4.7Zm115.3-14.1-3.5,1.8,16.9-1.8,12.8-5.8-26.2,5.8Z"/><path class="cls-5" d="M1293.42,584.59l-4.1-2.3-1.2,1.8C1296.32,587,1298,587,1293.42,584.59Z"/><path class="cls-3" d="M1299.22,635.49l-7-4.1c-80.4,43.3-156.6,45.1-230,5.3-33.8,17-71.6,23.4-113,19.3-46.6-2.3-94.9-19.9-145.6-51.5-15.7,17.5-33.2,28.1-51.2,31-16.3,1.8-32-2.3-48.3-11.7,6.4,2.9,12.8,5.3,19.2,5.8a99.58,99.58,0,0,1-22.7-10.5H417.12v.6l-9.3,17.6c-6.4,12.3-13.4,33.3-22.1,63.2-9.9,35.7-19.2,64.9-27.4,87.2-33.8,86-93.7,180.8-180.5,282.6-4.7,4.1-5.2,8.2-2.3,12.3,4.1,2.9,7.6,2.4,11.6-2.9,5.8-6.4,19.2-13.5,41.3-21.7,24.5-9.4,45.4-12.9,63.5-10.5-5.2,11.1-5.8,28.1-2.3,49.8,3.5,21,.6,42.7-7.6,63.8,30.3,5.8,43.7,30.4,38.4,75.5-60-19.3-110-6.5-149,38.6-33.8,38-51.8,79.6-54.1,123.4-2.9,43.3,9.3,90.7,36.1,142.8-4.1-18.1-5.2-31.6-4.1-41.5,3.5-25.7,4.7-46.8,4.1-62.6-1.8-28.7-8.7-50.9-21.5-66.1,21.5-31,49.5-32.2,86.2-4.1,32.6-34.5,69.9-45.6,112.4-34.5-11.1,11.7-16.3,25.1-15.7,40.4-.6,15.8-2.9,36.3-8.1,61.4,23.3,5.8,37.3,22.8,41.3,50.9,81.5-15.2,116.4,22.8,103.6,115.3h1528.3c-7.6-29.8-7-54.4,2.9-74.3,7.6-15.8,19.8-26.9,36.7-34.5,18.6-8.2,37.3-8.8,56.5-2.4,5.2-28.7,20.4-46.2,45.4-53.2-5.8-16.4-8.2-36.3-6.4-60.2.6-15.8-5.2-29.3-18-40.4,43.1-11.1,79.8.6,111.2,34.5,35.5-28.1,63.5-26.3,83.2,5.8-11.6,12.9-18,33.9-19.8,64.9-1.2,21.1,0,44.5,3.5,70.8.6,8.2,0,18.7-1.2,31.6,24.4-46.8,35.5-93,32-139.2-3.5-45-19.8-85.4-49.5-119.9-41.3-48.6-92-62.6-151.9-43.3-5.2-44.5,8.1-69.6,38.4-76-8.7-11.1-11.1-32.8-7-64.4q3.45-29.85-5.2-49.1c15.1-1.8,36.1,2.4,62.3,12.9,23.9,8.8,38.4,16.4,44.3,22.8,4.1,4.1,7,5.3,9.3,2.3,1.8-3.5,1.2-7-2.3-11.1-88.5-108.2-149-204.8-181.1-288.4-8.7-23.4-17.5-52.1-26.2-85.4-7.5-29.8-14.5-51.5-19.2-63.2l-11.6-21.6h-277.1a74.74,74.74,0,0,1-29.7,18.1c-41.9,15.2-75.7,4.7-101.9-31q-171.45,96.75-298.3,28.8Zm50.6,176.1a47.87,47.87,0,0,0-18.7,19.9,40.82,40.82,0,0,1,18.7-18.7l9.3,12.3c-12.8,6.4-19.8,20.5-20.4,42.7V1024l-15.1-2.4q65.55,17.55,122.3-24.6l15.1,14-5.2,32.8c9.9-12.9,14-24,12.8-33.9v-141c0-29.2-8.7-48-25.6-57.3h131a43.35,43.35,0,0,0-17.5,16.4c4.1-5.8,9.9-11.7,17.5-15.2l9.3,12.3c-12.8,6.4-20.4,20.5-21,42.7V1024l-14.5-2.4q64.65,17.55,122.3-24.6l14.6,14-3.5,21.1c27.4-59.7,53-120.5,75.1-180.8,5.2-14,2.9-27.5-6.4-39.8l99.6,2.3,91.4,197.2a187.19,187.19,0,0,0,51.2,65.5h-148.5l-11.1-16.4h-1.8c11.6-10.5,15.1-27.5,9.9-50.3H1755c-11.6,27.5-8.7,49.7,8.7,66.1h-84.4l-2.9-4.1-.6,4.1h-217.2l-7-5.8v5.8h-217.2l-17.5-15.8c20.4-19.9,29.7-36.9,27.4-50.3v-141c0-29.2-8.7-48-25-57.3l130.5.1Zm602.1,328.8c0-8.2,2.9-15.2,8.7-20.5,5.2-5.3,12.2-7,19.8-7,8.2,0,14.5,1.8,19.8,7,5.8,5.2,8.7,12.3,8.7,20.5s-2.9,15.2-8.7,20.5c-5.2,4.7-11.6,7-19.8,7.6-7.6-.6-14.6-2.9-19.8-7.6C1954.82,1155.59,1951.92,1148.59,1951.92,1140.39Zm-77.5,17.6a137.3,137.3,0,0,1,76.3,29.8V1244l.6.6v-56.2l13.4,15.2v65c-19.8-24.6-44.3-41-73.4-49.7-19.8-6.4-30.9.6-33.2,19.9l-7-8.2c7.6,11.7,23.9,24,48.9,35.7,36.1,17.6,58.2,38.6,65.8,63.8,7,29.3-1.8,52.7-26.2,70.8q-45.45,35.1-101.3,26.3c-21-3.5-40.2-11.7-58.2-23.4l-1.8-62c19.8,22.2,43.7,37.4,72.2,44.5,18.1,5.3,31.5.6,39.6-15.2,0-4.1-5.8-9.4-16.3-18.1l-36.1-26.9c-35.5-26.3-54.2-48.6-57.1-67.9a47.8,47.8,0,0,1-2.3-36.9c16.4-45.2,48.4-66.2,96.1-63.3Zm-125.2,10.5-2.9,2.4,9.3,11.1c-9.9,7.6-15.1,17-15.1,28.7-1.7,52.1-1.7,104.7-1.1,156.8,0,24,7,45.7,21.5,65h-120.5l-17.5-15.8c7-9.4,11.1-21.6,12.8-38a1693.09,1693.09,0,0,0,8.7-170.8c0-17.6-7.6-31-23.3-39.2l128.1-.2Zm-455.8,0,2.9,25.8-1.8-23.4,17.5,16.4,5.8,60.8a131.6,131.6,0,0,1,34.3-50.9c27.4-26.3,61.1-39.2,100.7-39.2s73.4,12.9,101.3,39.2l12.8,14c26.2,25.2,39,56.2,39.6,92.5,0,13.4-1.8,26.9-7,39.8-20.9,55.6-61.1,87.8-120.5,94.8-51.8,4.7-94.3-12.9-128.1-52.1-27.4-25.7-40.8-56.7-40.8-93.6l4.1-32.8,2.9-9.9c-30.9-19.9-54.7-28.1-71-25.1v142.7c0,17,10.5,39.2,32.6,65h-139.2l-13.4-15.8c13.4-10.5,19.8-26.9,21-49.1,1.8-47.4,2.9-94.8,2.9-142.2-6.4-2.4-15.1-1.2-26.8,2.3-12.8,4.1-23.9,10-33.2,18.7l-10.5-9.9-.6,1.2,6.4-69.1,208.1-.1Zm-745.9-345.2c8.7-9.4,19.8-15.2,32.6-18.1,43.1-12.9,83.3-4.7,119.4,22.8v1.2l13.4,15.2v63.8c-19.2-24.6-43.7-41.5-72.8-49.7-19.8-5.8-31.4.6-33.8,19.9,8.7,9.4,22.7,18.7,41.9,28.7,34.9,16.4,57.1,36.9,65.2,61.5,11.6,15.8,14,32.7,6.4,50.3-18.1,40.3-50.1,62-96.7,64.3-39,3.5-70.5-9.9-94.9-39.2l-1.2-62.6c18.1,20.5,39.6,35.7,64.6,45,20.4,8.8,36.1,3.5,47.2-15.2-.6-3.5-5.8-9.4-16.3-17.5l-36.7-26.9c-34.9-26.9-54.1-49.7-57.1-68.4-9.7-28.3-3.3-52.8,18.8-75.1Zm440.8,28.1c-1.2-14-8.7-27.5-23.9-39.8h218.3l2.3,21.1-1.2-18.1,14,15.2,5.2,64.4c-22.7-21.6-61.7-29.8-117-26.3v33.9l65.8,2.4,14.6,17.6,5.8,54.4a148.9,148.9,0,0,0-47.2-13.4l-39-2.4v61.4l-13.4-1.2c47.2,9.4,89.7,1.8,128.7-23.4l-.6,10.5.6-8.2,11.6,10.5-5.8,66.1H982.42l-14-15.8h-2.3c15.1-18.1,22.1-34.5,22.1-50.3l.1-158.6ZM941.72,814l17.5,16.4L965,893c-30.9-19.9-54.7-28.1-71-25.2V1010c0,17.6,10.5,39.8,32.6,66.1H787.42l-13.4-15.8h-1.7c16.3-15.2,24.4-32.2,24.4-50.3V867.79c-5.8-1.8-14.6-.6-26.2,2.9a85.1,85.1,0,0,0-32.6,18.7l-10.5-8.8,2.3-3.5-3.5,3.5,6.4-69H941l1.8,11.7Zm46.6,354.5c15.1,1.8,27.9,7.6,37.8,17.6a59.49,59.49,0,0,1,27.9,38c9.3,38.6-4.7,66.1-40.8,82.5,6.4,2.9,12.2,8.2,16.9,14.6a684.29,684.29,0,0,0,97.8,111.2l-16.3.6c-37.8,5.3-72.8-.6-105.4-16.4-19.2-12.9-34.3-29.3-44.8-49.1-19.2-35.1-39-52.1-58.8-49.7,10.5-.6,22.1,5.3,34.9,17.6-5.8-4.1-14-5.3-24.5-4.1v43.9c0,18.7,8.2,38.1,24.5,57.4l-252.7.6-11.6-16.4h-.6c12.8-11.7,15.1-31.6,7-59.1l2.3,10h-85.6c-11.6,26.9-8.7,48.6,9.9,65h-87.9l-17.5-15.8c17.5-19.9,29.1-36.3,34.3-49.1l62.3-159.7c4.1-12.9,2.3-26.3-5.8-39.2h97.8l.6,1.8,94.9,197.2,21.5,37.4c9.3-9.9,14-22.2,14-37.4v-159.7c-3.5-20.5-12.2-33.4-25-39.2l192.9-.5Z"/><path class="cls-5" d="M1621.22,534.29l4.7-.6-.6-1.8-4.1,2.4Z"/><path class="cls-2" d="M1625.32,532l.6,1.8,67.5-19.9-66.4,16.4Z"/><path class="cls-1" d="M1621.22,534.29l4.1-2.3,1.7-1.8,16.3-8.8-33.8,11.7-5.8,2.3-9.3,2.3a17.65,17.65,0,0,0,7.6,3.5l19.2-6.9Z"/><path class="cls-5" d="M1603.72,532v3.5l5.8-2.3-5.8-1.2Z"/><path class="cls-4" d="M1585.12,562.39l-7.6,1.8-1.2,1.2-5.8,2.3L1560,573l13.4,1.2,6.4-.6c9.3-1.2,16.9-5.3,22.1-12.3l-16.8,1.1Z"/><path class="cls-2" d="M1560,572.89l10.5-5.3-22.7-8.2-11.7,11.1,6.4,2.3H1560Zm-1095.7-15.8c-11.6,8.8-20.4,18.7-28.5,31l-8.1,14.6h252.6l20.4,16.4a95.49,95.49,0,0,0,22.7,10.5c33.8,3.5,62.3-8.2,85-34.5l-4.7,9.4c50.6,31.6,99,49.1,145.6,51.5a283.14,283.14,0,0,1-86.2-22.2A352,352,0,0,0,997.62,649c23.3.6,42.5-5.3,57.6-17l-8.7-5.8-7,2.3-10.5-.6-51.2,2.9-5.8,4.7-36.7-7.6,21.5-.6c5.8.6,10.5-1.8,12.8-6.4l-9.9-4.7-14.6,2.9,9.3-7.6-43.1-4.1c8.2-8.8,18.6-11.1,30.3-6.4a308.56,308.56,0,0,0,97.8,19.3c-6.4-5.8-12.8-10.5-21-14-21-9.9-36.1-25.7-44.3-46.8l-39.6-39.8-62.9-61.4c-9.3-7-18.1-11.7-26.8-14.6,32.6,30.4,53.6,51.5,63.5,63.8s27.4,26.9,53,45.6c-19.8-5.3-43.1-24-71.6-56.2a832.87,832.87,0,0,0-84.4-85.4c-30.3-18.7-61.7-19.9-93.7-4.1a161.24,161.24,0,0,1,64,21.1,21,21,0,0,0,9.3,16.4q24.45,17.55,34.9,43.9a25.55,25.55,0,0,1,5.8,16.4c-.6-2.3-4.7-7-13.4-12.9-10.5-7.6-15.7-14.6-14-19.9l-9.3-8.2c7,7.6,10.5,17.6,10.5,28.7l-18-17.5a305.56,305.56,0,0,0-66.4-56.2l68.1,67.3,17.5,14L768,485.29,681.82,418a1080.1,1080.1,0,0,1,90.8,89.5L688.82,456l94.9,65c-33.8-2.9-65.8-12.9-94.9-31l8.7,6.4,99,43.3c-1.7,1.8-4.1,2.9-7,4.1l-79.2-19.3a178.29,178.29,0,0,0,53.6,17.5c22.7-.6,41.3,7.6,54.7,24l-23.9.6c41.3,26.9,85.6,46.2,132.7,57.3l-18-2.9a428.54,428.54,0,0,1-124.6-50.3c-29.1-15.8-58.8-26.3-90.2-31l.6-4.1-15.7,7.6c-6.4,4.7-12.8,7-19.8,7l-195.4,6.9ZM776.92,515H799l10.5,5.9v6.4L776.92,515Zm48.4-32.8,3.5,2.3c-11.6-19.9-26.2-36.8-42.5-51.5,32.6,17,57.1,41.5,71.6,74.9l-5.2-2.9c-.6,18.7,7.6,29.3,24.5,32.8l-17.5-31,7,2.9-11.6-17.5c13.4,6.4,22.1,17,27.4,31l-4.1-2.3c4.1,12.3,8.7,21.6,16.3,29.8l2.3,1.8,1.8-7-12.2-21.1c12.8,5.8,20.4,15.8,22.1,30.4.6,9.9,6.4,14,16.3,11.7l-12.8-15.8-5.8-12.3c16.9,15.8,33.8,32.2,49.5,50.3l-37.3-7.6,10.5-1.8c-5.2-5.8-11.1-7.6-18.6-5.3-3.5-1.2-6.4-1.8-9.3-3.5l-5.2-1.8,9.3-1.8-4.7-9.4-25-6.4c1.2-1.2-.6-2.3-4.7-4.7l-20.4-8.8,9.9-1.8-40.2-14.6,7.6-2.3-19.2-11.1,40.8,11.7c-2.9-12.9-9.9-22.8-22.1-29.2l-2-8.1Zm66.9,96c-3.5-2.9-10.5-1.8-21,2.3-14.6,5.8-23.3,6.4-26.2,1.8l22.7-9.4c10.5-2.3,18.7-.6,24.5,5.3Zm-4.1,18.7-8.1-1.8c22.1-14,37.3-12.9,46,1.8a73.6,73.6,0,0,0-22.1-5.3C897.52,591.59,892.22,592.79,888.12,596.89Zm-83.8-26.3a34.36,34.36,0,0,1,29.1,4.1l9.9,5.8C830.52,584.59,817.12,581.09,804.32,570.59Zm60.6-5.9-19.2,2.3c-9.9,1.8-17.5,0-22.7-5.3l21.5-2.9C853.82,557.69,860.22,559.49,864.92,564.69Zm-28,22.3c10.5-1.8,20.4,1.8,29.7,8.8l-25-4.7Zm3.5-45.1-37.8,2.9-9.3-2.3C810.12,533.09,825.82,533.09,840.42,541.89Zm80.4,73.1c8.1,3.5,11.6,5.8,10.5,7-22.7-4.7-33.2-7-30.9-8.2Zm-55.9-13.4c10.5-2.9,21.5-1.8,33.2,4.1l4.1,2.3C888.72,612.09,875.92,609.79,864.92,601.59ZM752.52,584l38.4,12.3c-22.1,8.8-42.5,5.8-61.1-9.4l-4.1-3.5,26.8.6Zm-48.9-32.7h12.2c15.7,1.8,30.3,7,42.5,15.8Zm-22.7-4.7,6.4-7c-1.8,33.3,12.2,56.2,42.5,69l-7-1.8c-28.5-11.1-42.5-31-41.9-60.2Zm264.3,21.6,19.2,10.5,3.5,9.4,5.8,6.4-10.5,2.3c-1.1-11.6-7.5-21.5-18-28.6l48.9,28.7,9.9,5.8c-7.6,0-10.5-1.8-9.9-5.8Z"/><path class="cls-1" d="M799.12,515H777l32.6,12.3v-6.4Zm29.7-30.4-3.5-2.3,1.8,8.2c12.2,6.4,19.2,16.4,22.1,29.2L808.42,508l19.2,11.1-7.6,2.3,40.2,14.6-9.9,1.8,20.4,8.8c4.1,2.3,5.8,3.5,4.7,4.7l25,6.4,4.7,9.4-9.3,1.8,5.2,1.8c2.9,1.8,5.8,2.3,9.3,3.5,7.6-2.3,13.4-.6,18.6,5.3l-10.5,1.8,37.3,7.6c-15.7-18.1-32.6-34.5-49.5-50.3l5.8,12.3,12.8,15.8c-9.9,2.3-15.7-1.8-16.3-11.7-1.8-14.6-9.3-24.6-22.1-30.4l12.2,21.1-1.8,7-2.3-1.8c-7.6-8.2-12.2-17.5-16.3-29.8L866.62,510l-7-2.9,17.5,31c-16.9-3.5-25-14-24.5-32.8-9.3-6.1-17.4-12.5-23.8-20.7Z"/><path class="cls-4" d="M852.62,505l5.2,2.9c-14.6-33.4-39-57.9-71.6-74.9a213.64,213.64,0,0,1,42.5,51.5c6.5,8.3,14.6,14.7,23.9,20.5Zm2.4-12.8,11.6,17.5,11.6,11.1,4.1,2.3c-5.2-14-14-24.5-27.3-30.9Z"/><path class="cls-1" d="M871.32,580.49c10.5-4.1,17.5-5.3,21-2.3-5.8-5.8-14-7.6-24.5-5.3l-22.7,9.4c2.9,4.7,11.6,4.1,26.2-1.8Zm8.7,14.6,8.1,1.8c4.1-4.1,9.3-5.3,15.7-5.3a72.89,72.89,0,0,1,22.1,5.3C917.32,582.29,902.12,581.09,880,595.09Z"/><path class="cls-4" d="M833.42,574.69a34.72,34.72,0,0,0-29.1-4.1c12.8,10.5,26.2,14,39,9.9l-9.9-5.8Z"/><path class="cls-1" d="M845.62,567.09l19.2-2.3c-4.7-5.3-11.1-7-20.4-5.8l-21.5,2.9C828.22,567.09,835.72,568.79,845.62,567.09Z"/><path class="cls-4" d="M866.62,595.69c-9.3-7-19.2-10.5-29.7-8.8l4.7,4.1Z"/><path class="cls-1" d="M802.52,544.79l37.8-2.9c-14.6-8.8-30.3-8.8-47.2.6Z"/><path class="cls-4" d="M931.22,622.09c1.2-1.2-2.3-3.5-10.5-7l-20.4-1.2c-2.3,1.1,8.2,3.5,30.9,8.2ZM898,605.69c-11.6-5.8-22.7-7-33.2-4.1a40.5,40.5,0,0,0,37.3,6.4Zm-107.1-9.4L752.52,584l-26.8-.6,4.1,3.5c18.6,15.3,39,18.2,61.1,9.4Z"/><path class="cls-1" d="M715.82,551.29h-12.2l54.7,15.8A88.49,88.49,0,0,0,715.82,551.29Zm-28.5-11.7-6.4,7c-.6,29.2,13.4,49.1,41.9,60.3l7,1.8c-30.3-13-44.3-35.8-42.5-69.1Zm277.1,39.2-19.2-10.5c10.5,7,16.9,17,18,28.7l10.5-2.3-5.8-6.4Z"/><path class="cls-4" d="M1004,602.69l-9.9-5.8C993.52,601,996.42,602.69,1004,602.69Z"/><path class="cls-1" d="M1144.32,288l-2.3-5.8c-3.5-7.6-9.3-12.9-18.1-14,8.7,12.3,14.6,22.2,16.3,28.7l5.2-6.4c-.6,7,10.5,26.9,32,59.7q22.65,34.2,1.8,91.3c-2.9-7.6-2.9-17.6-1.8-29.8,1.8-11.7-.6-21.6-6.4-30.4-12.2,48-1.2,90.1,32.6,127.5,1.8,2.3,1.8-1.2,1.2-11.1l-18.1-32.8,13.4-58.5-9.9-47.4c-1.8-8.8,5.2-18.1,21.5-26.9l-4.1-9.9-22.1,20.5-7-8.8c-14.6-14-24.4-30.4-30.3-50.3Z"/><path class="cls-2" d="M1178.72,333.59l7,8.8,22.1-20.5-4.7-10.5C1196.12,313.09,1187.42,320.19,1178.72,333.59Z"/><path class="cls-5" d="M1211.92,332.49v-.6c-16.3,8.8-23.3,18.1-21.5,26.9-1.2-8.8,6.3-17.6,21.5-26.3Z"/><path class="cls-1" d="M999.92,309.59l-16.3-1.2-7,4.7,17.5,1.8,15.1,24,1.2-2.3c3.5-4.1,4.7-7.6,2.3-11.7l-4.1-6.4a20.78,20.78,0,0,0-8.7-8.9Zm-47.1,37.5,4.6-2.3-8.7-.6,4.1,2.9Z"/><path class="cls-5" d="M975.52,311.39l1.2,1.8,7-4.7Z"/><path class="cls-1" d="M940,339.49c6.4-9.9,8.1-19.9,5.2-29.8l-23.9-6.4,21,13.4-16.9,22.8-9.9-4.7-2.3,4.7a8.13,8.13,0,0,1-3.5,1.2l19.2,3.5.6,8.2q2.7,16.65,15.7,50.9c6.4,17,11.6,29.2,16.9,38l7,10.5,12.8,5.8,3.5,2.9,6.4,7.6,1.8,10.5c2.3,6.4,9.3,14.6,21.5,22.8l12.2,2.3-2.9-1.2-2.3-1.2c-11.1-6.4-18.1-15.2-21-27.5-3.5-12.3-12.2-20.5-25-24a397.25,397.25,0,0,1-40.8-103.6l4.7-6.7Z"/><path class="cls-5" d="M1019.12,307.89v-2.4h-1.2Z"/><path class="cls-1" d="M1018,305.49v-1.8c1.2-4.1,4.7-6.4,11.1-6.4l-2.9-2.9-7-1.8c-6.4,1.8-9.3,4.1-9.9,7-1.2,7,2.9,11.1,11.1,13.5,4.1.6,6.4-1.2,7-5.3h-8.2l-1.2-2.3Zm-2.9,124.1,9.9,5.8,12.2,1.8c-24.5-22.2-33.2-43.9-26.8-63.8,6.4-7.6,8.1-15.8,4.7-24.6a27.23,27.23,0,0,0-11.1,18.1c-2.9,22.3.6,42.8,11.1,62.7Zm-54.8-49.2-1.2,1.8c-2.3,0-3.5,1.2-2.9,3.5,0,1.8,2.9,3.5,6.4,5.3,2.3-4.7,1.7-8.2-1.2-10.5l-1.1-.1Zm23.3,39.2c1.2-4.1,0-7-2.9-8.8h-2.3l-2.9,7C980.12,426.09,982.52,427.19,983.62,419.59Zm22.1,11.1a39.57,39.57,0,0,0-9.9-10.5l-2.9,7.6,16.3,14.6Z"/><path class="cls-4" d="M993.52,478.69h-6.4c-4.1.6-3.5,6.4,1.2,16.4,5.2,9.4,9.3,12.9,12.8,11.1a23.36,23.36,0,0,1,14-4.7c-12.3-8.2-19.2-16.3-21.6-22.8Zm-8.1-18.1-3.5-2.9-14.6-4.1-11.6,10.5,29.7-3.5Z"/><path class="cls-1" d="M943.52,443l.6-4.7-4.7-2.9-2.9-8.8,1.2-4.7-4.1-8.8-4.1-7,12.8,50.4,5.8,2.3c3.5-2.9,2.3-5.3-2.9-8.2l1.2-4.1c-1.8,0-2.9-.5-2.9-3.5Z"/><path class="cls-4" d="M954.52,440.69c3.5,5.3,5.8,5.3,7.6.6-5.2-8.8-10.5-21.1-16.9-38-8.7-22.8-14-39.8-15.7-50.9h-1.8a132.6,132.6,0,0,0,15.7,70.2l11.1,18.1Z"/><path class="cls-1" d="M1051.22,446c0,7.6,3.5,14,10.5,19.3l1.8,1.8c1.8,1.8.6,1.8-4.1,1.2l-10.5-4.1,15.7,11.1-12.2,10.5,19.8-10.5,22.1,9.4-16.3,22.2c23.9-12.3,33.8-31,30.3-54.4l-7,19.9-31.4-26.3,27.4,31-4.1,1.2-4.7-1.8c-14.6-7-26.8-17.5-36.7-29.8l-.6-.7Z"/><path class="cls-5" d="M1051.72,445.39l-.6.6.6.6v-1.2Zm11.7,21.6-1.8-1.8-2.3,2.9C1064,468.79,1065.12,468.79,1063.42,467Z"/><path class="cls-1" d="M1034.92,506.79a76.61,76.61,0,0,1,21.5,14l2.9,5.3c-14.6-2.3-27.9,2.3-38.4,14l32-10.5-8.7,4.7,16.3.6-9.3,7,17.5-2.3-8.1,8.8,18.6-1.8-8.1,8.8,18.1-4.7-4.7,7,19.8-12.3-38.5-19.3c-2.3-12.9-10.5-19.3-23.3-19.3Zm68.1-71.4-4.7,1.2-1.2,1.8c1.2,3.5,2.9,5.3,4.7,4.7S1104.12,440.09,1103,435.39Zm-18.6,7,8.1,5.3c1.2,0,1.2-2.3-.6-7.6l-14-2.3,6.5,4.6Z"/><path class="cls-1" d="M1118.72,512.09l1.8-5.3,1.2-7c-.6-8.2-5.2-13.5-12.8-17a31.55,31.55,0,0,1,4.1,25.7l-34.9,17.6,9.9,2.3,9.3.6,1.2,4.1Zm55.9-12.3-2.3-12.3-40.2,50.3,9.3,2.3c10.5-6.4,19.8-16.4,26.8-29.2l6.4-11.1Z"/><path class="cls-5" d="M913.22,297.89l2.3,3.5,5.8,1.8,23.9,6.4-32-11.7Z"/><path class="cls-1" d="M766.52,481.09l1.8,4.1,32.6,15.2-17.5-14-16.9-5.3Zm160.1-97.2h-1.7l4.7,21.6,2.3-4.7v-.6c-.6-.6-2.3-.6-2.9-1.2l-2.3-14v-1.1Z"/><path class="cls-5" d="M924.82,383.89h1.7v-.6Zm4.7,22.3,4.1,7,2.9-1.2-4.7-11.1-2.3,4.7Zm-.6-7.1c.6.6,2.3.6,2.9,1.2l-5.2-15.2Zm-16.3,0-1.2,1.2,19.2,74.9-18-76.1Z"/><path class="cls-1" d="M812.52,492.19c8.7,5.8,12.8,10.5,13.4,12.9a26.32,26.32,0,0,0-5.8-16.4l-21.5-16.4C796.72,477.59,802,484.59,812.52,492.19Zm59.3-34,62.9,61.4,21,19.9L940,517.89c-35.5-46.8-80.3-81.9-134.5-106.5,28.5,25.2,57.1,53.2,84.4,85.4,28.5,32.2,51.8,50.9,71.6,56.2-25.6-18.7-43.1-33.3-53-45.6s-30.9-33.3-63.5-63.8c8.8,2.9,17.5,7.6,26.8,14.6Zm-68.1,146.3,4.7-9.4c-22.7,26.3-51.2,38-85,34.5-6.4-.6-12.8-2.9-19.2-5.8,16.3,9.4,32,13.5,48.3,11.7,18-2.9,35.5-13.4,51.2-31Zm106,16.4,18,2.9c-47.2-11.1-91.4-30.4-132.7-57.3-19.8-15.8-41.9-26.3-66.4-32.8l-33.2,1.8-.6,4.1c31.4,4.7,61.1,15.2,90.2,31A430.25,430.25,0,0,0,909.72,620.89Z"/><path class="cls-5" d="M1204.92,534.29h.6l.6,1.2h2.9l1.8-4.1v-.6Z"/><path class="cls-1" d="M1210.72,531.39l-1.8,4.1c-1.2,4.1-1.2,10.5,1.2,18.7,2.3-9.4,3.5-15.8,3.5-19.9,0-3.5-.6-4.7-2.9-2.9Zm-4.7,4.1-.6-1.2c-8.1,6.4-11.1,15.8-8.1,26.9Zm-11,3.5-5.2,1.8-46.6,9.9-8.2,22.2,19.2-18.1-4.1,20.5,14.6-18.7L1163,573l12.2-18.1-.6,15.2,12.2-19.3,1.2,14,7-25.8Z"/><path class="cls-5" d="M1132.12,537.79v1.8l9.3.6Zm-54.2-11.7v1.2l9.9,1.2-9.9-2.4Z"/><path class="cls-4" d="M974.32,630.79h3.5l51.2-2.9,3.5-1.8c-25.6-9.9-44.8-8.1-58.2,4.7Z"/><path class="cls-6" d="M1239.82,127.09l20.9,72-61.7-42.7-61.7,42.7,21.5-72-60-45.6,75.7-1.2,24.4-72,25.1,72,75.1,1.2-59.3,45.6Z"/><rect id="red_background" data-name="red background" class="cls-7" x="501.02" y="723.49" width="1540.3" height="749.8"/><rect class="cls-8" x="474.32" y="753.59" width="1456.7" height="351.5"/><text class="cls-9" transform="translate(530.64 1000.32)">BOOGIE</text><rect class="cls-8" x="491.62" y="1125.89" width="1374" height="351.5"/><text class="cls-10" transform="translate(491.74 1337.41)">BOTTOMS</text><rect class="cls-8" x="513.72" y="739.19" width="1370.8" height="426"/><text class="cls-11" transform="translate(527.09 985.92)">BOOGIE</text><rect class="cls-8" x="477.82" y="1111.59" width="1400.7" height="391.7"/><text class="cls-12" transform="translate(491.16 1323.06)">BOTTOMS</text><path class="cls-7" d="M726,295.39c7.7,8.3,12.1,19.2,13.6,30.1,1.2,9-2.5,21.2-8,28.3-1.3,1.6-4.8,6.3-10.5,14-1.1,1.4-2.7,3.6-4.9,6.5s-3.8,5.1-4.8,6.6c-.6.9-1.2,1-1.9.4-3.3-2.8-8.1-7.2-14.5-13.1s-11.2-10.3-14.5-13.1-8.7-7.2-15.7-12.8-12.3-9.8-15.7-12.7c-.6-.5-.7-1.4-.1-2.5a110.41,110.41,0,0,1,8.1-12.3c7.5-10.5,12.8-16.8,15.4-19.5,6.8-7,13.4-11.2,19.7-12.6,5.8-1.3,12-.6,18.3,1.9A42.61,42.61,0,0,1,726,295.39ZM711.32,312c-4.7-4.8-9.9-7.1-15.4-7.1-5.7.1-10.7,2.7-14.9,8.1-3.8,4.9-5.1,8-3.9,9.1,1.7,1.6,4.3,4,7.7,7.2s6,5.6,7.7,7.2,4.2,3.9,7.7,6.9,6,5.4,7.7,6.9c1.2,1.2,3.7-.7,7.3-5.5a21.27,21.27,0,0,0,4.7-16.8C719.12,322.49,716.22,317,711.32,312Z"/><path class="cls-7" d="M754,265c3,3.7,7.5,9.1,13.6,16.3s10.7,12.7,13.6,16.3a1.83,1.83,0,0,1,.6,1.5,3.85,3.85,0,0,1-.9,1.1c-1.5,1.8-3.7,4-6.5,6.7a83.81,83.81,0,0,1-7.4,6.6,1.52,1.52,0,0,1-2.3-.3c.4.5-1.8-2.3-6.6-8.3-6.6-8.3-13.2-16.7-20.2-24.7-2.8-3.2-7.1-8-12.9-14.2s-10.1-11-12.9-14.2a1.34,1.34,0,0,1,.1-2q1.35-1.35,4.2-3.9c1.9-1.7,3.3-3,4.2-3.8s2.2-2.2,3.9-4a44.62,44.62,0,0,1,4-3.9c.9-.8,1.6-.8,2.1-.2,2.7,3.3,6.5,8.5,11.6,15.4C747.42,256.49,751.32,261.69,754,265Z"/><path class="cls-7" d="M852.22,245c.4.5.2,1.3-.4,2s-3.5,2.6-8.1,5.6c-4.2,2.7-7,4.4-8.4,4.9a3.16,3.16,0,0,1-3.4-1c-4.1-4.2-6.6-6.3-7.4-6.2-.6.1-4.7,2.6-12,8-4.9,3.6-7.4,5.8-7.5,6.3-.1.9.6,3.1,2.1,6.5,1.4,3.1,1.8,5.1,1.2,5.9-.7,1-3.9,3.6-9.2,8-4.2,3.5-6.8,4.7-7.3,3.9-6.1-10.3-9.5-25.7-13.6-38.6-4.7-14.9-9-30.1-13.4-45.2-.5-1.5-.5-2.5,0-2.9.9-.7,2.3-1.6,4.2-2.8s3.4-2.1,4.3-2.8,2.1-1.6,3.8-3,2.9-2.3,3.8-2.9c.6-.4,1.6-.3,2.8.5,12.9,8.4,25.2,17.9,37.1,27.4C831.62,227,844.92,235.79,852.22,245Zm-62.1-24.7a122.71,122.71,0,0,0,3.2,11.9c1.9,6.4,3.2,10,3.8,10.9.4.6,1.5.2,3.4-1,.9-.6,2.5-1.7,4.7-3.2,2-1.4,2.9-2.5,2.8-3.2a5.9,5.9,0,0,0-.4-.8c-.7-1.1-3.4-3.7-8.2-7.6A81.9,81.9,0,0,0,790.12,220.29Z"/><path class="cls-7" d="M901.32,164.59q5.7,13.35,2.7,24.3c-2.1,7.7-7,13.2-14.9,16.8-1.3.6-3.4,1.4-6.1,2.5s-4.7,2-6,2.6-1.8,1.7-1.1,3a81.82,81.82,0,0,0,4.2,7.1c2,3.1,3.3,5.5,4.2,7.1.4.8.3,1.4-.4,1.7-1.9,1-4.8,2.3-8.7,4.2s-6.7,3.4-8.6,4.4c-.9.5-1.6.2-2.2-.8-2.2-3.9-5.4-9.8-9.6-17.6s-7.4-13.8-9.6-17.7c-6.5-11.5-13.5-22.8-20.8-34-.2-.3-.3-.4-.5-.7q-.6-.9.9-2.1c2.5-1.9,8.5-5.4,18-10.2,5.6-2.8,11.1-5.4,16.4-7.7,8.8-3.7,17.2-4,24.8-1C891.92,149.89,897.62,155.89,901.32,164.59Zm-20.8,9.7c-4-8.5-10.1-11-18.1-7.2-5.6,2.7-8.4,4.5-8.4,5.3q0,.9,6,12.6.9,1.65,2.7,4.8c1.2,2.1,2.1,3.7,2.6,4.8.4.7,3.5-.5,9.6-3.3C882.42,187.79,884.32,182.19,880.52,174.29Z"/><path class="cls-7" d="M983.82,174.79a77,77,0,0,1,1.8,9.2c.8,4.9,1.1,7.9.9,8.9a2,2,0,0,1-1.4,1.5c-.3.1-.9.1-1.6.2-2.7.2-10.2,1.7-22.3,5.1-2.6.7-6.6,1.9-11.7,3.4s-9,2.8-11.6,3.7a1.63,1.63,0,0,1-2.3-1c-1.7-4.2-4-10.5-6.8-19s-5.2-14.8-6.8-19-5-12.1-10.1-23.5c-1.3-2.9-3.3-7.3-5.9-13.1a3,3,0,0,0-.4-.8q-.6-1.2.9-1.8c2.8-1,7.1-2.3,12.9-4s10.2-2.8,13-3.7,7.1-2.1,12.9-3.7,10.1-2.7,13-3.4c2.1-.5,3.5,0,4.3,1.4a71.41,71.41,0,0,1,3.3,7.8c1.7,4.4,2.8,7,3,8,.2.8,0,1.3-.8,1.5a7.07,7.07,0,0,1-1.2.2,189.06,189.06,0,0,0-27.9,5.7c-2,.6-3.1,1.4-3.2,2.5a19.19,19.19,0,0,0,1.3,4.4c.9,2.6,1.9,4.1,2.9,4.8.9.5,2.2.5,4,0a22.68,22.68,0,0,0,2.2-.7c1.1-.4,2-.6,2.7-.8,4.7-1.3,9.5-2.6,14.3-4.1.4-.1,1.4-.5,3-1a18.76,18.76,0,0,1,3-.9,1.36,1.36,0,0,1,1.8,1c-.2-.8.3,2.2,1.6,9,.6,3.1,1.4,6.2,2.3,9.3.2.8-.2,1.3-1.3,1.5-2.1.2-3.1.3-5.1.6a130.43,130.43,0,0,0-14.3,3.3c-2.3.6-3.5,1-5.8,1.6-1.5.4-2.2,1.1-2.2,1.9a26.86,26.86,0,0,0,1.2,3.5,19.59,19.59,0,0,0,2.5,5.4c1.1,1.3,3.7,1.4,7.7.6q-.15,0,7.8-2.1c1.9-.5,4.6-1.4,8.3-2.6a65.7,65.7,0,0,1,8.3-2.5C982.82,172.79,983.42,173.39,983.82,174.79Z"/><path class="cls-7" d="M1068.92,181.89c0,.3-.3.5-1,.6a94.14,94.14,0,0,1-10.5.9c-4.8.3-8.1.5-9.8.4a3,3,0,0,1-1.4-.2,3.7,3.7,0,0,1-1-1.1c-.8-1.5-2.1-3.7-3.8-6.5-2.2-3.7-5.6-9.2-10.4-16.4-1-1.4-2.8-2.1-5.2-2,1.2-.1-.8.2-5.8.8-.6.1-.6,1.1-.2,3.1.6,2.6,1.7,6.5,3.4,11.7s2.8,9,3.4,11.7c.2.7.1,1.1-.2,1.2s-1,.2-1.5.3c-2.1.4-5.4,1-9.8,1.7a93.14,93.14,0,0,1-9.3,1.2,1.8,1.8,0,0,1-2-1.5c-1.1-4.2-2.7-10.6-4.6-19.2s-3.4-15-4.5-19.3c-3.4-12.7-6.9-25.4-11.3-37.8-.1-.3-.2-.5-.3-.8-.2-.6.3-1.2,1.6-1.7s7.4-1.9,18.5-3.6c7.5-1.2,13.6-2,18.2-2.5,9.4-1,17.6.4,24.3,4.1a24.89,24.89,0,0,1,13.2,19c.9,5.7.8,10.2-.4,13.7s-3.6,6.9-7.4,10.4c-.8.7-1.1,1.3-1,1.8,0,0,3.3,4.7,9.5,14.2S1068.82,180.89,1068.92,181.89Zm-33.3-50.6c-.9-4.7-3.2-7.9-6.8-9.4-2.8-1.2-6.8-1.4-12.1-.8-3.8.5-5.7,1.3-5.7,2.5s.8,5.1,2.3,11.4c.2.9.5,2.2,1,3.9s.8,3,1,3.9c0,.2.7.3,2,.3a49.69,49.69,0,0,0,7.6-.4C1033.32,141.69,1037,138,1035.62,131.29Z"/><path class="cls-7" d="M1440.37,188.39c-.1.28-.64.28-1.74.09-2-.37-6.94-1.66-14.78-3.69-6.76-1.76-11.41-2.86-13.79-3.69a18.19,18.19,0,0,1-1.91-.74,2.93,2.93,0,0,1-.82-1.39c-.37-1.57-.92-4.06-1.65-7.11-1-4.06-2.73-10.24-5.38-18.27-.64-1.67-2.65-2.87-6.3-3.6,1.64.36-1.19-.19-8.67-1.3-.82-.09-1.46.74-1.92,2.68a93.39,93.39,0,0,0-1.73,11.45,93.48,93.48,0,0,1-1.73,11.44c-.19.65-.55,1-1,1-.73,0-1.55-.18-2.28-.18-3.19-.28-8.12-.93-14.88-1.76-7.75-.92-12.41-1.38-14-1.75s-2.19-1-2.1-1.94c.73-4.16,2.19-10.34,4.29-18.56s3.65-14.49,4.38-18.65c2.28-12.27,4.38-24.64,5.2-37.2a2.9,2.9,0,0,1,.09-.83c.1-.65,1.19-1,3.2-1,9.22,0,19,1.39,28.29,2.5,8.85,1.1,18,2.58,26.83,4.24,11,2.13,22.46,5.91,31.22,13.11,8,6.65,10.49,14.22,7.66,22.16-1.91,5.26-4.56,9.23-7.94,11.72s-8.67,4.43-15.79,5.82c-1.46.28-2.28.65-2.37,1.2,0,0,1.92,5.35,5.3,16.34S1440.64,187.47,1440.37,188.39Zm-18.08-57.88c1.37-4.53-.09-8.13-4.19-10.81-3.2-2-8.67-3.87-16.52-5.17-5.57-.92-8.77-.83-9.31.19-.64,1.2-1.74,4.8-3.2,10.89-.18.83-.45,2.13-.82,3.79l-.82,3.78c0,.19.82.56,2.65,1,3.37.92,7,1.66,10.86,2.31C1413.44,138.63,1420.47,136.88,1422.29,130.51Z"/><path class="cls-7" d="M1554.72,239.16c-.18.56-1.18.65-2.46.19-1.46-.55-5.66-3-12.78-7.2-6.48-3.79-10.68-6.19-12.41-7.48a3.77,3.77,0,0,1-1.73-3.88c1.09-5.72,1.18-9,.45-9.88-.64-.64-6.84-4.15-19.16-9.78-8.31-3.79-12.87-5.45-13.51-5.45-1.1.19-2.92,1.66-5.39,4.53-2.28,2.49-4.1,3.69-5.47,3.41-1.74-.37-7.4-2.58-17.07-6-7.58-2.77-11.32-4.71-10.86-5.54,5.93-9.78,20.63-19.38,31.21-28.15,12.42-10.34,25.56-20.13,38.43-30.1,1.27-1,2.37-1.39,3.19-1,1.46.65,3.74,1.76,6.76,3.33s5.2,2.67,6.75,3.41,3.65,1.66,6.48,2.87,5,2.21,6.39,3a4.08,4.08,0,0,1,1.91,3.14c1.92,16.06,1.92,32.49,1.74,48.47C1557,210.73,1558.74,228.55,1554.72,239.16ZM1529,164.85a106.85,106.85,0,0,0-10.32,7.38c-5.38,4.16-8.21,6.74-8.67,7.76-.27.64,1.1,1.66,4,3.14,1.55.74,4.11,2,7.57,3.69,3.29,1.57,5.21,2.22,5.85,1.85a2.06,2.06,0,0,0,.54-.65c.55-1.11,1.1-4.89,1.28-11.08S1529.35,166.79,1529,164.85Z"/><path class="cls-7" d="M1629.56,264.18c-4.83,6.1-12.59,8.13-22.9,6.74-10.14-1.29-19.26-5.72-28.3-10.25a3,3,0,0,1-.82-.55c-1-.74-1.55-4.52-2-11.45s-.36-10.89.28-11.91c.27-.37.73-.37,1.46,0,7.12,3.33,12,5.54,14.51,6.37,5.66,1.67,9.67,1,12-2.21,1.46-2,1.55-5.45.36-10.25-2.28-8.22-3.65-12.74-3.74-13.57-.91-5.63-.09-10.43,2.55-14.49,3.93-5.91,11.23-7.94,21.91-6,10.31,1.93,19.35,7.29,28.29,12.64.55.37.91.74,1.19.93a2.39,2.39,0,0,1,.82,2.49c-.55,3.23-.82,9.6-1.28,19.11a1.12,1.12,0,0,1-.18.65c-.37.55-1,.46-1.83-.28-.36-.28-.91-.92-1.64-1.66s-1.37-1.39-1.82-1.85a28.16,28.16,0,0,0-9.59-5.63c-3.83-1.2-6.48-.74-8,1.29-1.37,1.94-1.46,5.54-.36,10.89,1.82,9.61,2.64,14.59,2.73,15.05C1633.4,256.24,1632.21,260.86,1629.56,264.18Z"/><path class="cls-7" d="M1700.75,386.41c-.64.46-1.09.56-1.55.28a9,9,0,0,1-1.46-1.76c-1.92-2.67-4.65-6.64-8-11.63-4.84-7.11-7.67-11.26-8.4-12.65s-.73-2.3-.18-2.86c2.19-2,5.75-4.89,10.41-8.58s8.21-6.56,10.49-8.5a2.58,2.58,0,0,0,.82-3.23c-.91-1.75-4.83-7.57-12.23-16.8s-12.14-14.4-13.6-15.69c-.91-.83-1.91-.65-3,.46q-3.15,3.18-9,10c-3.93,4.52-6.94,7.75-9,10-.82.83-1.73.74-2.83-.19-1.28-1.1-4.65-4.89-10.4-10.89-4.93-5.26-8.13-8.58-9.31-10.15-1-1.2-1.1-2.22-.46-3,2.74-3.14,7-7.66,13-13.57s10.22-10.43,13-13.57q4.38-5,12.6-15.79c5.47-7.1,9.58-12.46,12.5-15.78.55-.65,1.28-.56,2.19.37,1.28,1.29,3.29,3.41,5.84,6.18s4.47,4.9,5.75,6.28,3.38,3.51,6.12,6.37,4.65,5,5.93,6.46c.64.74.82,1.39.27,1.94-2,2-5.2,4.89-9.58,8.49s-7.58,6.47-9.58,8.5a2.32,2.32,0,0,0-.55,2.95c.82,1.39,5.66,7,14.05,17.63,7.85,9.79,12.23,15.7,13.6,17.08a2,2,0,0,0,3,.19c2-1.85,5-4.71,8.86-8.77s6.84-7,8.94-8.86c.91-.84,1.74-.56,2.65.73,1.09,1.48,2.65,3.7,4.65,6.84s3.56,5.44,4.57,7,2.55,3.79,4.74,6.74,3.65,5.35,4.66,6.92,1.09,2.59.36,3.14c-3.37,2.68-8.67,6.56-15.79,11.54s-12.41,8.87-15.88,11.63c-3.19,2.59-7.85,6.74-14,12.38S1704,383.92,1700.75,386.41Z"/><rect class="cls-8" x="803.72" y="1765.69" width="1038.7" height="288.7"/><g class="cls-13"><text class="cls-14" transform="translate(803.75 1939.59)">S</text><text class="cls-15" transform="translate(1019.65 1939.59)">pray</text></g></g></g></svg>